<svg width="57" height="68" viewBox="0 0 57 68" xmlns="http://www.w3.org/2000/svg">
    <g fill="#00A291" fill-rule="nonzero">
        <path d="M36.636 24.626a2 2 0 0 1 3.305 2.253L28.254 44.033a2 2 0 0 1-2.746.55l-8.766-5.719a2 2 0 0 1 2.186-3.35l7.123 4.647 10.585-15.535z"/>
        <path d="M27.087.254 1.025 14.799A2 2 0 0 0 0 16.545V34c.443 16.687 7.85 27.465 27.438 33.9a2 2 0 0 0 1.248 0c19.588-6.435 26.995-17.213 27.437-33.847V16.545a2 2 0 0 0-1.025-1.746L29.037.254a2 2 0 0 0-1.95 0zm.975 4.036 24.061 13.428V34l-.013.447c-.503 14.39-6.672 23.452-23.61 29.296l-.439.148-.436-.148C10.51 57.839 4.39 48.649 3.999 33.947L4 17.718 28.062 4.29z"/>
    </g>
</svg>
