<svg width="98" height="98" viewBox="0 0 98 98" xmlns="http://www.w3.org/2000/svg">
    <g fill-rule="nonzero" fill="none">
        <path d="M60.659 87.73C72.675 94.92 85.01 97.21 98 98V19.6H19.6c0 10.508 4.185 22.62 8.491 32.077 6.82 14.998 18.506 27.652 32.568 36.053z" fill="#A0D4CD"/>
        <path d="M37.338 10.265C25.3 3.092 12.985.791 0 0v78.4h78.4c0-10.509-4.185-22.621-8.497-32.079-6.815-15-18.502-27.665-32.565-36.056z" fill="#B8C9E6"/>
        <g fill="#FFF">
            <path d="M64.742 25.311h-34.3a5.718 5.718 0 0 0-5.716 5.717v30.489a5.718 5.718 0 0 0 5.716 5.716h34.3a5.718 5.718 0 0 0 5.717-5.716v-30.49a5.718 5.718 0 0 0-5.717-5.716zm0 3.811c1.052 0 1.906.854 1.906 1.906v30.489a1.907 1.907 0 0 1-1.906 1.905h-34.3a1.907 1.907 0 0 1-1.905-1.905v-30.49c0-1.05.854-1.905 1.905-1.905h34.3z"/>
            <path d="M36.159 21.5c1.052 0 1.905.853 1.905 1.906v9.527a1.906 1.906 0 1 1-3.81 0v-9.527c0-1.053.852-1.906 1.905-1.906zM59.026 21.5c1.052 0 1.905.853 1.905 1.906v9.527a1.906 1.906 0 1 1-3.811 0v-9.527c0-1.053.853-1.906 1.906-1.906zM47.592 38.65c1.053 0 1.906.853 1.906 1.906V55.8a1.906 1.906 0 1 1-3.811 0V40.556c0-1.053.853-1.906 1.905-1.906z"/>
            <path d="M55.214 46.272a1.906 1.906 0 0 1 0 3.811H39.97a1.906 1.906 0 1 1 0-3.81h15.244z"/>
        </g>
    </g>
</svg>
