<svg width="128" height="24" viewBox="0 0 128 24" xmlns="http://www.w3.org/2000/svg">
    <g fill="#FFF" fill-rule="nonzero">
        <path opacity=".6" d="M3.429 3.429h11.885l-.038 2.895H6.743v4.647h7.81v2.896h-7.81v6.819H3.429zM21.257 3.886c.305.343.457.762.457 1.219 0 .457-.152.876-.457 1.18-.647.61-1.638.61-2.286 0-.304-.304-.457-.761-.457-1.18 0-.457.153-.876.457-1.22a1.657 1.657 0 0 1 2.286 0zm-2.743 4.571h3.2v12.19h-3.2V8.458zM36.419 8.724c.876.914 1.295 2.133 1.295 3.695v8.229h-3.238V13.37c.038-.8-.228-1.6-.8-2.171-.571-.571-1.333-.838-2.133-.8-.953-.038-1.867.381-2.514 1.105-.648.762-.953 1.714-.915 2.705v6.476h-3.2V7.505h3.2V9.98c.915-1.676 2.476-2.552 4.724-2.59 1.524-.039 2.705.419 3.581 1.333z"/>
        <path d="M40.914 3.429h3.772L50.4 14.514 56.076 3.43h3.772v17.219H56.8V8.305l-5.371 10.59h-2.134l-5.41-10.59v12.38h-3.009V3.43zM89.981 3.429v17.219h-3.2v-2.134a4.558 4.558 0 0 1-1.829 1.676c-.8.381-1.714.61-2.59.572a6.185 6.185 0 0 1-3.276-.838 5.836 5.836 0 0 1-2.21-2.4 8.165 8.165 0 0 1-.8-3.543 7.218 7.218 0 0 1 .762-3.467 5.74 5.74 0 0 1 2.21-2.362c.99-.571 2.095-.876 3.238-.838a5.24 5.24 0 0 1 2.628.61c.762.38 1.41.99 1.867 1.714v-6.21h3.2zm-4.267 13.6c.724-.8 1.105-1.829 1.029-2.896a4.224 4.224 0 0 0-1.029-2.895c-.685-.762-1.676-1.143-2.704-1.105-1.029-.038-1.981.381-2.705 1.105a4.083 4.083 0 0 0-1.067 2.895 4.083 4.083 0 0 0 1.067 2.896c.685.761 1.676 1.142 2.705 1.104a3.564 3.564 0 0 0 2.704-1.104zM104.8 10.21c-.99-.039-1.943.342-2.59 1.066-.686.762-1.029 1.79-.991 2.82a4.16 4.16 0 0 0 .99 2.856c.648.724 1.6 1.105 2.591 1.067 1.562 0 2.743-.533 3.543-1.562l1.98 1.638c-.57.838-1.409 1.524-2.323 1.981a7.415 7.415 0 0 1-3.39.686c-1.22.038-2.4-.267-3.467-.838-.99-.534-1.79-1.372-2.362-2.362-.571-1.067-.876-2.286-.838-3.467a7.008 7.008 0 0 1 .838-3.505 5.874 5.874 0 0 1 2.362-2.361c1.067-.572 2.286-.877 3.467-.839 1.104 0 2.209.191 3.2.61.914.381 1.676.99 2.285 1.79l-1.943 1.867c-.8-.952-2.057-1.486-3.352-1.447zM120.8 20.648v-1.6a4.226 4.226 0 0 1-1.752 1.295 6.95 6.95 0 0 1-2.477.457c-.838 0-1.676-.152-2.438-.533-.647-.343-1.219-.838-1.6-1.448a4.129 4.129 0 0 1-.571-2.095c-.038-1.105.419-2.21 1.295-2.895.876-.686 2.095-1.067 3.695-1.067h3.81v-.343a2.167 2.167 0 0 0-.762-1.79 3.508 3.508 0 0 0-2.21-.648 7.556 7.556 0 0 0-3.923 1.219l-1.143-2.21c.876-.533 1.828-.914 2.819-1.257.952-.266 1.98-.38 2.971-.38 1.715 0 3.048.418 3.962 1.218.953.839 1.41 1.981 1.448 3.429l.038 8.61-3.162.038zm-1.143-2.934c.61-.343.99-.952 1.105-1.6v-1.18h-3.314c-.648-.039-1.296.076-1.867.38a1.369 1.369 0 0 0-.61 1.257c-.038.534.229 1.029.61 1.334a2.743 2.743 0 0 0 1.714.495c.838-.038 1.676-.267 2.362-.686zM72.876 9.181c1.067 1.18 1.6 2.895 1.6 5.067 0 .419 0 .762-.038.952h-9.714c.343 1.79 1.943 3.086 3.771 3.01.648 0 1.334-.115 1.943-.381a4.175 4.175 0 0 0 1.6-1.105l1.714 1.79c-.647.724-1.485 1.296-2.4 1.676-.99.42-2.057.61-3.162.572a7.15 7.15 0 0 1-3.542-.838 5.874 5.874 0 0 1-2.362-2.362c-.572-1.067-.876-2.286-.838-3.467a7.008 7.008 0 0 1 .838-3.505 5.874 5.874 0 0 1 2.362-2.361c1.066-.572 2.247-.877 3.466-.839 2.096 0 3.696.61 4.762 1.791zm-1.333 3.886c0-.877-.343-1.715-.953-2.324a3.297 3.297 0 0 0-2.4-.876 3.339 3.339 0 0 0-2.361.838 3.91 3.91 0 0 0-1.181 2.324h6.895v.038zM70.629 5.6l1.98-2.133-3.314-.038L68.42 5.6zM93.181 8.457h3.2v12.19h-3.2zM95.924 3.886c.305.304.495.762.457 1.219 0 .457-.152.876-.457 1.18-.648.61-1.638.61-2.286 0-.305-.304-.457-.761-.457-1.18 0-.457.152-.876.457-1.22a1.657 1.657 0 0 1 2.286 0z"/>
    </g>
</svg>
