<svg width="156" height="30" viewBox="0 0 156 30" xmlns="http://www.w3.org/2000/svg">
    <g fill-rule="nonzero" fill="none">
        <path fill="#A0B7DD" d="M4.204 4.204h14.572l-.047 3.55H8.267v5.697h9.575v3.55H8.267v8.36H4.204zM26.062 4.764c.374.42.56.934.56 1.495 0 .56-.186 1.074-.56 1.448a2.032 2.032 0 0 1-2.802 0c-.374-.374-.56-.935-.56-1.448 0-.56.186-1.075.56-1.495a2.032 2.032 0 0 1 2.802 0zM22.7 10.37h3.924v14.946h-3.924V10.369zM44.651 10.696c1.075 1.12 1.589 2.615 1.589 4.53v10.089h-3.97v-8.921c.046-.98-.28-1.962-.981-2.662s-1.635-1.028-2.616-.981c-1.168-.047-2.289.467-3.083 1.354-.794.935-1.167 2.102-1.12 3.317v7.94h-3.924V9.202h3.923v3.035c1.121-2.055 3.036-3.13 5.792-3.176 1.868-.047 3.316.514 4.39 1.635z"/>
        <path fill="#FFF" d="M50.163 4.204h4.624l7.006 13.591 6.96-13.591h4.623v21.111H69.64V10.182l-6.586 12.984h-2.616l-6.632-12.984v15.18h-3.69V4.204zM110.321 4.204v21.111h-3.923v-2.616a5.588 5.588 0 0 1-2.242 2.055c-.981.468-2.102.748-3.176.701a7.583 7.583 0 0 1-4.017-1.027 7.156 7.156 0 0 1-2.71-2.943 10.01 10.01 0 0 1-.98-4.344 8.85 8.85 0 0 1 .934-4.25 7.037 7.037 0 0 1 2.71-2.896c1.214-.7 2.568-1.074 3.97-1.027 1.12-.047 2.241.233 3.222.747.934.467 1.728 1.214 2.289 2.102V4.204h3.923zm-5.231 16.674c.887-.981 1.354-2.242 1.26-3.55a5.18 5.18 0 0 0-1.26-3.55c-.84-.934-2.055-1.4-3.316-1.354-1.261-.047-2.43.467-3.317 1.354a5.006 5.006 0 0 0-1.307 3.55 5.006 5.006 0 0 0 1.307 3.55c.841.934 2.056 1.401 3.317 1.354a4.37 4.37 0 0 0 3.316-1.354zM128.49 12.517c-1.215-.046-2.382.42-3.176 1.308-.84.934-1.261 2.195-1.215 3.456a5.1 5.1 0 0 0 1.215 3.503c.794.888 1.961 1.355 3.176 1.308 1.915 0 3.363-.654 4.344-1.915l2.428 2.009c-.7 1.027-1.728 1.868-2.849 2.428a9.091 9.091 0 0 1-4.157.841c-1.494.047-2.942-.327-4.25-1.027-1.214-.654-2.195-1.682-2.896-2.896-.7-1.308-1.074-2.803-1.027-4.25a8.592 8.592 0 0 1 1.027-4.298 7.202 7.202 0 0 1 2.896-2.895c1.308-.701 2.802-1.075 4.25-1.028 1.355 0 2.71.234 3.924.747 1.12.467 2.055 1.215 2.802 2.196l-2.382 2.288c-.98-1.167-2.522-1.821-4.11-1.775zM148.107 25.315v-1.962a5.182 5.182 0 0 1-2.149 1.588c-.98.374-2.008.56-3.036.56-1.027 0-2.055-.186-2.99-.653-.793-.42-1.494-1.028-1.96-1.775a5.062 5.062 0 0 1-.701-2.569c-.047-1.354.513-2.709 1.588-3.55 1.074-.84 2.569-1.307 4.53-1.307h4.67v-.42a2.656 2.656 0 0 0-.933-2.196 4.3 4.3 0 0 0-2.71-.794 9.264 9.264 0 0 0-4.81 1.495l-1.401-2.71c1.074-.653 2.242-1.12 3.456-1.54 1.168-.328 2.429-.468 3.643-.468 2.102 0 3.737.514 4.858 1.495 1.167 1.028 1.728 2.429 1.775 4.204l.046 10.555-3.876.047zm-1.402-3.596c.748-.42 1.215-1.168 1.355-1.962v-1.448h-4.064c-.794-.047-1.588.093-2.288.467-.514.327-.794.934-.748 1.541-.046.654.28 1.261.748 1.635.607.42 1.354.654 2.102.607 1.027-.046 2.055-.327 2.895-.84zM89.35 11.256c1.307 1.448 1.961 3.55 1.961 6.212 0 .514 0 .934-.046 1.168h-11.91c.42 2.195 2.382 3.783 4.623 3.69.794 0 1.635-.14 2.382-.467.748-.28 1.402-.748 1.962-1.355l2.102 2.195c-.794.888-1.822 1.588-2.943 2.055a9.081 9.081 0 0 1-3.876.701 8.767 8.767 0 0 1-4.344-1.027 7.202 7.202 0 0 1-2.896-2.896c-.7-1.308-1.074-2.803-1.027-4.25a8.592 8.592 0 0 1 1.027-4.298 7.202 7.202 0 0 1 2.896-2.895c1.308-.701 2.756-1.075 4.25-1.028 2.57 0 4.53.747 5.839 2.195zm-1.635 4.764c0-1.074-.42-2.101-1.168-2.849a4.043 4.043 0 0 0-2.942-1.074 4.093 4.093 0 0 0-2.896 1.028 4.794 4.794 0 0 0-1.448 2.849h8.454v.046zM86.594 6.866l2.429-2.616-4.064-.046-1.074 2.662zM114.244 10.369h3.924v14.946h-3.924zM117.607 4.764c.374.374.607.934.56 1.495 0 .56-.186 1.074-.56 1.448a2.032 2.032 0 0 1-2.802 0c-.374-.374-.56-.935-.56-1.448 0-.56.186-1.075.56-1.495a2.032 2.032 0 0 1 2.802 0z"/>
    </g>
</svg>
