<svg width="359" height="125" viewBox="0 0 359 125" xmlns="http://www.w3.org/2000/svg">
    <g fill-rule="nonzero" fill="none">
        <path d="M144.088 61.127c10.913-6.53 22.115-8.609 33.912-9.327V123h-71.2c0-9.543 3.8-20.542 7.711-29.13 6.193-13.622 16.806-25.114 29.577-32.743z" fill="#F49D7D"/>
        <path d="M122.91 95.877c-10.934 6.515-22.117 8.605-33.91 9.323V34h71.2c0 9.544-3.801 20.544-7.717 29.133-6.188 13.622-16.802 25.125-29.574 32.744z" fill="#E5481D"/>
        <path d="M32.04 70.102C20.922 59.114 7.588 58.147 4.426 58H0v25.515c.217 3.205 1.47 16.477 12.513 27.383C23.636 121.881 36.97 122.853 40.132 123h8.736c3.167-.147 16.501-1.119 27.62-12.102C87.53 99.992 88.782 86.72 89 83.515V58h-4.421c-3.167.147-16.496 1.114-27.619 12.102-10.358 10.228-12.085 22.542-12.457 26.67-.358-4.128-2.1-16.442-12.463-26.67zm14.82 23.585a23.342 23.342 0 0 1 9.254-10.233c4.814-2.87 9.799-3.002 15.247-3.038H88.81a28.158 28.158 0 0 1-2.22 6.912 23.301 23.301 0 0 1-9.256 10.238c-4.814 2.876-9.799 3.003-15.247 3.038H44.638a28.122 28.122 0 0 1 2.221-6.917zM17.653 80.401c5.443.04 10.433.172 15.247 3.038a23.327 23.327 0 0 1 9.25 10.243 28.127 28.127 0 0 1 2.226 6.907H26.914c-5.443-.04-10.433-.167-15.247-3.038a23.292 23.292 0 0 1-9.235-10.238 28.167 28.167 0 0 1-2.24-6.897h9.974c2.493 0 4.985-.035 7.478 0l.01-.015z" fill="#B1B2B4"/>
        <path d="M302.04 70.102C290.922 59.114 277.588 58.147 274.426 58H270v25.515c.217 3.205 1.47 16.477 12.513 27.383 11.123 10.983 24.457 11.955 27.619 12.102h8.736c3.167-.147 16.501-1.119 27.62-12.102C357.53 99.992 358.782 86.72 359 83.515V58h-4.421c-3.167.147-16.496 1.114-27.619 12.102-10.358 10.228-12.085 22.542-12.457 26.67-.358-4.128-2.1-16.442-12.463-26.67zm14.82 23.585a23.342 23.342 0 0 1 9.254-10.233c4.814-2.87 9.799-3.002 15.247-3.038h17.448a28.158 28.158 0 0 1-2.22 6.912 23.301 23.301 0 0 1-9.256 10.238c-4.814 2.876-9.799 3.003-15.247 3.038h-17.448a28.122 28.122 0 0 1 2.221-6.917zm-29.206-13.286c5.443.04 10.433.172 15.247 3.038a23.327 23.327 0 0 1 9.25 10.243 28.127 28.127 0 0 1 2.226 6.907h-17.463c-5.443-.04-10.433-.167-15.247-3.038a23.292 23.292 0 0 1-9.235-10.238 28.167 28.167 0 0 1-2.24-6.897h9.974c2.493 0 4.985-.035 7.478 0l.01-.015z" fill="#A0D4CD"/>
        <path d="M32.02 12.103C20.902 1.114 7.568.147 4.426 0H0v25.517c.217 3.2 1.47 16.473 12.513 27.385C23.636 63.886 36.97 64.858 40.132 65h8.736c3.167-.142 16.501-1.114 27.62-12.098C87.604 41.92 88.782 28.717 89 25.517V0h-4.421C81.412.147 68.083 1.114 56.96 12.103 46.602 22.332 44.875 34.642 44.503 38.774c-.378-4.132-2.12-16.442-12.483-26.671zm14.819 23.582a23.358 23.358 0 0 1 9.255-10.239c4.814-2.871 9.799-3.003 15.247-3.038h17.448a28.162 28.162 0 0 1-2.221 6.912 23.302 23.302 0 0 1-9.255 10.24c-4.814 2.87-9.799 3.002-15.247 3.037H44.618a28.233 28.233 0 0 1 2.22-6.912zM17.634 22.403c5.443.04 10.433.172 15.247 3.038a23.343 23.343 0 0 1 9.25 10.24 28.238 28.238 0 0 1 2.225 6.911H26.894c-5.443-.04-10.433-.172-15.247-3.038a23.293 23.293 0 0 1-9.235-10.24 28.172 28.172 0 0 1-2.226-6.911h9.975c2.478 0 4.97-.02 7.463 0h.01z" fill="#B1B2B4"/>
        <path d="M302.02 12.103C290.902 1.114 277.568.147 274.426 0H270v25.517c.217 3.2 1.47 16.473 12.513 27.385C293.636 63.886 306.97 64.858 310.132 65h8.736c3.167-.142 16.501-1.114 27.62-12.098C357.604 41.92 358.782 28.717 359 25.517V0h-4.421c-3.167.147-16.496 1.114-27.619 12.103-10.358 10.229-12.085 22.539-12.457 26.671-.378-4.132-2.12-16.442-12.483-26.671zm14.819 23.582a23.358 23.358 0 0 1 9.255-10.239c4.814-2.871 9.799-3.003 15.247-3.038h17.448a28.162 28.162 0 0 1-2.221 6.912 23.302 23.302 0 0 1-9.255 10.24c-4.814 2.87-9.799 3.002-15.247 3.037h-17.448a28.233 28.233 0 0 1 2.22-6.912zm-29.205-13.282c5.443.04 10.433.172 15.247 3.038a23.343 23.343 0 0 1 9.25 10.24 28.238 28.238 0 0 1 2.225 6.911h-17.462c-5.443-.04-10.433-.172-15.247-3.038a23.293 23.293 0 0 1-9.235-10.24 28.172 28.172 0 0 1-2.226-6.911h9.975c2.478 0 4.97-.02 7.463 0h.01z" fill="#A0D4CD"/>
        <g fill="#00A291">
            <path d="M270 94.7h-23.986c-7.392.03-14.188.23-20.728 4.135a31.57 31.57 0 0 0-12.588 13.852c-1.668 3.643-3.283 8.286-3.283 12.313v-7.183c.292-4.33 1.995-22.281 17.014-37.036 15.122-14.879 33.255-16.166 37.56-16.366H270V94.7zM178 63.277h13.843c3.389 0 6.773.026 10.161 0 7.399-.056 14.182-.23 20.724-4.105a31.632 31.632 0 0 0 12.576-13.856c1.661-3.643 3.281-8.293 3.281-12.316v7.184c-.292 4.332-2 22.282-17.01 37.041-15.14 14.852-33.26 16.165-37.566 16.36H178V63.277z"/>
        </g>
    </g>
</svg>
