<svg width="80" height="80" viewBox="0 0 80 80" xmlns="http://www.w3.org/2000/svg">
    <g fill="none" fill-rule="evenodd">
        <path d="M0 0h80v80H0z"/>
        <path d="M21.349 7.43 16.25 25.08l-.08.314C6.36 26.868 0 29.234 0 31.901 0 36.37 17.909 40 40 40s40-3.629 40-8.1c0-2.667-6.36-5.032-16.171-6.506a5.318 5.318 0 0 0-.08-.313L58.65 7.424c-.834-2.878-3.988-4.584-7.08-3.963-3.508.702-8.028 1.441-11.571 1.441-3.543 0-8.063-.734-11.571-1.441-3.092-.621-6.246 1.08-7.08 3.968zm-1.342 25.258c.037-.44.221-.846.51-1.126.29-.28.663-.412 1.036-.368 5.076.614 10.773.954 16.78.954 5.604.015 11.205-.303 16.781-.954.776-.092 1.468.577 1.545 1.494.078.916-.487 1.734-1.263 1.826-5.178.62-10.965.967-17.063.967-6.097 0-11.884-.347-17.062-.967-.373-.044-.716-.26-.953-.603a1.882 1.882 0 0 1-.31-1.223zm-3.896 20.645h11.111A2.778 2.778 0 0 1 30 56.111v5.556a8.333 8.333 0 1 1-16.667 0V56.11a2.778 2.778 0 0 1 2.778-2.778zm-9.957 2.334c0-1.05.17-2.064.48-3h-.48c-1.558 0-2.82-1.343-2.82-3s1.262-3 2.82-3h19.743c4.263 0 7.86 3.373 8.394 7.872a18.614 18.614 0 0 1 11.418 0c.534-4.499 4.13-7.872 8.394-7.872h19.743c1.558 0 2.82 1.343 2.82 3s-1.262 3-2.82 3h-.48c.31.936.48 1.95.48 3v6c0 8.284-6.314 15-14.102 15-7.789 0-14.103-6.716-14.103-15v-.84l-1.185-.42a13.303 13.303 0 0 0-8.912 0l-1.185.42v.84c0 8.284-6.314 15-14.103 15-7.788 0-14.102-6.716-14.102-15v-6zm46.624-2.334h11.11a2.778 2.778 0 0 1 2.779 2.778v5.556a8.333 8.333 0 0 1-16.667 0V56.11a2.778 2.778 0 0 1 2.778-2.778z" fill="#A0B7DD" fill-rule="nonzero"/>
    </g>
</svg>
