<svg width="165" height="127" viewBox="0 0 165 127" xmlns="http://www.w3.org/2000/svg">
    <defs>
        <filter x="-9.7%" y="-10.4%" width="119.3%" height="120.9%" filterUnits="objectBoundingBox" id="v7of7ay2va">
            <feMorphology radius=".5" operator="dilate" in="SourceAlpha" result="shadowSpreadOuter1"/>
            <feOffset dy="1" in="shadowSpreadOuter1" result="shadowOffsetOuter1"/>
            <feGaussianBlur stdDeviation="1.5" in="shadowOffsetOuter1" result="shadowBlurOuter1"/>
            <feColorMatrix values="0 0 0 0 0 0 0 0 0 0 0 0 0 0 0 0 0 0 0.15 0" in="shadowBlurOuter1" result="shadowMatrixOuter1"/>
            <feMerge>
                <feMergeNode in="shadowMatrixOuter1"/>
                <feMergeNode in="SourceGraphic"/>
            </feMerge>
        </filter>
    </defs>
    <g fill-rule="nonzero" fill="none">
        <path d="M164.653 39.753v10.258c-2.866 41.7-37.057 74.636-79.446 76.53h-8.725V77.073C79.335 35.367 113.534 2.424 155.93.542h8.753l-.029 39.211z" fill="#A0D4CD"/>
        <path d="M14.403 65.695C4.338 82.587 1.11 99.865 0 118.083h110v-110c-14.744 0-31.739 5.873-45.009 11.922-21.045 9.561-38.816 25.96-50.588 45.69z" fill="#F9D1C7"/>
        <g filter="url(#v7of7ay2va)" transform="translate(47.927 31.042)" fill="#FFF">
            <path d="M63.938 1.445A13.323 13.323 0 0 1 81.67 6.95c3.208 5.87 1.56 13.162-3.999 17.224l-.051.036.27.174c5.188 3.418 8.47 8.087 9.679 14.042l.085.438c.953 5.179-.08 10.229-2.87 15.258-2.875 5.178-7.036 9.47-12.832 13.684-6.984 5.079-14.789 9-25.44 13.179-1.737.681-3.304.677-5.047-.005-9.61-3.76-16.86-7.303-23.412-11.735C11.788 65.006 7.242 60.703 3.95 55.45 1.41 51.4.047 47.356.002 43.123c-.087-8.072 3.422-14.345 10.212-18.817l.107-.07-.243-.181C4.406 19.758 3.003 11.969 6.817 6.099l.171-.257C11.17-.282 19.612-1.788 25.703 2.48c5.825 4.08 7.415 12.27 3.273 18.43l-.103.148 2.784.506-.002-.048c-.221-3.698 1.021-6.973 3.753-9.635l.27-.255c2.644-2.452 5.909-3.511 9.568-3.162 6.402.61 11.271 6.074 11.06 12.821l-.011.28 2.831-.516-.103-.146C56.6 17.401 55.98 13.44 57.318 9.2l.112-.345c1.117-3.294 3.347-5.814 6.508-7.41zM23.924 26.224c-4.179 0-7.326.667-10.062 2.339-4.918 3.005-7.667 7.083-8.218 12.454-.382 3.73.641 7.331 2.975 11.164 2.79 4.582 6.745 8.382 12.367 12.25 6.212 4.274 13.186 7.715 22.17 11.181l.877.336a.165.165 0 0 1-.03-.014l1.047-.406c1.402-.54 2.764-1.086 4.09-1.64l.961-.408-.401-.014a20.6 20.6 0 0 1-5.606-1.062l-.463-.16a63.05 63.05 0 0 1-5.628-2.353c-6.23-2.951-11.568-6.742-16.006-11.475-3.763-4.015-2.104-10.438 3.136-11.998a7.272 7.272 0 0 1 1.442-.269l.408-.037-.007-.166c-.323-7.41 2.257-12.966 8.185-16.342l.221-.123-.725-.773-.618-.642-.187-.06c-3.282-1.183-6.581-1.782-9.928-1.782zm30.465 1.687-.503.18-1.33 1.414.239.133c4.922 2.79 7.681 7.143 8.042 12.871l.02.384.041 1.034c.047 1.36.065 2.691.064 4.505l-.036 6.373.03-.015c3.09-1.635 6.073-3.677 9.068-6.162l.642-.539c1.26-1.071 2.919-1.084 4.006.094 1.15 1.246.946 3-.377 4.135-5.273 4.526-10.347 7.71-15.866 9.7-5.017 1.808-9.503 2.02-13.782.264-2.486-1.02-4.616-2.065-6.519-3.243l-.47-.298c-1.75-1.127-3.146-2.113-5.793-4.07l-2.915-2.157-.396-.29c-.62-.452-1.03-.606-1.445-.558-.764.088-1.196.425-1.448 1.125-.261.725-.121 1.276.501 1.926 5.06 5.279 11.268 9.223 18.725 12.057 3.364 1.278 6.573 1.502 9.682.603 6.676-1.932 12.664-4.742 17.988-8.515 4.057-2.875 6.733-5.855 8.34-9.604 4.417-10.303-1.82-20.584-11.603-22.542-4.746-.95-9.526-.592-14.367 1.012l-.538.183zm-11.537 5.237c-4.792.019-8.927 3.271-9.84 7.802-.28 1.387-.342 2.627-.343 5.277l-.002 1.078-.013 1.004 5.057 3.576.57.4a110.535 110.535 0 0 0 3.593 2.426l.73.465.445.277c3.96 2.46 8.013 3.083 12.185 1.755l.114-.038-.011-1.295c-.002-.427-.004-.885-.004-1.414l.01-9.145-.01-1.903c-.05-4.859-3.293-8.93-7.968-9.966l-.344-.07c-1.03-.196-2.071-.237-4.17-.229zm1.079-19.146c-3.687.036-6.723 3.095-6.723 6.771-.001 3.71 3.087 6.79 6.785 6.772 3.726-.019 6.797-3.112 6.761-6.799-.036-3.734-3.122-6.78-6.823-6.744zm26.02-8.39c-4.269.003-7.703 3.415-7.717 7.66-.014 4.294 3.444 7.8 7.69 7.809 4.253.008 7.766-3.486 7.779-7.737.012-4.253-3.474-7.734-7.752-7.732zm-51.862 0c-4.355-.017-7.853 3.44-7.838 7.728.016 4.25 3.53 7.745 7.784 7.74 4.217-.004 7.67-3.474 7.68-7.724.01-4.277-3.392-7.727-7.626-7.744z"/>
        </g>
    </g>
</svg>
