<svg width="141" height="141" viewBox="0 0 141 141" xmlns="http://www.w3.org/2000/svg">
    <g fill="#40B9AD" fill-rule="nonzero" opacity=".404">
        <path d="M70.5 0c17.259 0 31.616 12.396 34.656 28.773l.095.602h18.124c9.383 0 17.059 7.34 17.595 16.59L141 47v88.125a5.875 5.875 0 1 1-11.75 0V47a5.88 5.88 0 0 0-5.875-5.875h-23.5A5.875 5.875 0 0 1 94 35.25c0-12.982-10.518-23.5-23.5-23.5S47 22.268 47 35.25a5.875 5.875 0 0 1-5.875 5.875h-23.5A5.88 5.88 0 0 0 11.75 47v88.125a5.875 5.875 0 1 1-11.75 0V47c0-9.73 7.894-17.625 17.625-17.625h18.118l.1-.602C38.807 12.816 52.514.638 69.179.024L70.5 0z"/>
        <path d="M70.5 17.625a5.875 5.875 0 0 1 5.875 5.875V47a5.875 5.875 0 0 1-11.75 0V23.5a5.875 5.875 0 0 1 5.875-5.875z"/>
        <path d="M82.25 29.375a5.875 5.875 0 0 1 0 11.75h-23.5a5.875 5.875 0 0 1 0-11.75h23.5zM29.375 64.625A5.875 5.875 0 0 1 35.25 70.5v5.87a5.875 5.875 0 0 1-11.75 0V70.5a5.875 5.875 0 0 1 5.875-5.875zM52.875 64.625A5.875 5.875 0 0 1 58.75 70.5v5.87a5.875 5.875 0 0 1-11.75 0V70.5a5.875 5.875 0 0 1 5.875-5.875zM88.125 64.625A5.875 5.875 0 0 1 94 70.5v5.87a5.875 5.875 0 0 1-11.75 0V70.5a5.875 5.875 0 0 1 5.875-5.875zM111.625 64.625A5.875 5.875 0 0 1 117.5 70.5v5.87a5.875 5.875 0 1 1-11.75 0V70.5a5.875 5.875 0 0 1 5.875-5.875zM29.375 93.994a5.875 5.875 0 0 1 5.875 5.875v5.87a5.875 5.875 0 1 1-11.75 0v-5.87a5.875 5.875 0 0 1 5.875-5.875zM52.875 93.994a5.875 5.875 0 0 1 5.875 5.875v5.87a5.875 5.875 0 1 1-11.75 0v-5.87a5.875 5.875 0 0 1 5.875-5.875zM88.125 93.994A5.875 5.875 0 0 1 94 99.87v5.87a5.875 5.875 0 1 1-11.75 0v-5.87a5.875 5.875 0 0 1 5.875-5.875zM111.625 93.994a5.875 5.875 0 0 1 5.875 5.875v5.87a5.875 5.875 0 1 1-11.75 0v-5.87a5.875 5.875 0 0 1 5.875-5.875z"/>
    </g>
</svg>
