<svg width="24" height="24" viewBox="0 0 24 24" xmlns="http://www.w3.org/2000/svg">
    <g fill="#B1B2B4" fill-rule="nonzero">
        <path d="M12.566 6.384a1 1 0 0 1 1.414 0l3.636 3.636a1 1 0 1 1-1.414 1.414l-3.636-3.636a1 1 0 0 1 0-1.414z"/>
        <path d="m14.722 4.228-9.818 9.818a1 1 0 0 0-.255.436l-1.43 5.064a1 1 0 0 0 1.234 1.234l5.066-1.428a1 1 0 0 0 .435-.255l9.819-9.819a3.572 3.572 0 0 0-5.051-5.05zm3.636 1.414.108.12a1.573 1.573 0 0 1-.108 2.102l-9.634 9.634-3.095.873.873-3.095 9.635-9.634a1.57 1.57 0 0 1 2.221 0z"/>
    </g>
</svg>
