<svg width="24" height="24" viewBox="0 0 24 24" xmlns="http://www.w3.org/2000/svg">
    <g fill="#000" fill-rule="nonzero">
        <path d="M12 3C9 3 6.073 4.436 3.545 6.765 1.549 8.602 0 10.863 0 12c0 1.137 1.55 3.398 3.545 5.235C6.073 19.564 9 21 12 21s5.927-1.436 8.455-3.765C22.451 15.398 24 13.137 24 12c0-1.137-1.55-3.398-3.545-5.235C17.927 4.436 15 3 12 3zm0 2c2.428 0 4.91 1.218 7.1 3.236C20.71 9.718 22 11.6 22 12c0 .399-1.29 2.282-2.9 3.764C16.91 17.782 14.428 19 12 19s-4.91-1.218-7.1-3.236C3.29 14.282 2 12.4 2 12c0-.399 1.29-2.282 2.9-3.764C7.09 6.218 9.572 5 12 5z"/>
        <path d="M12 8a4 4 0 1 0 0 8 4 4 0 0 0 0-8zm0 2a2 2 0 1 1 0 4 2 2 0 0 1 0-4z"/>
    </g>
</svg>
