<svg width="136" height="136" viewBox="0 0 136 136" xmlns="http://www.w3.org/2000/svg">
    <g fill="#D8D9DA" fill-rule="nonzero" opacity=".2">
        <path d="M119.002 11.333h-102c-9.386 0-17 7.615-17 17V119c0 9.386 7.614 17 17 17h102c9.385 0 17-7.614 17-17V28.333c0-9.385-7.615-17-17-17zm0 11.334a5.67 5.67 0 0 1 5.666 5.666V119a5.67 5.67 0 0 1-5.666 5.667h-102A5.67 5.67 0 0 1 11.335 119V28.333a5.67 5.67 0 0 1 5.667-5.666h102z"/>
        <path d="M34.002 0a5.667 5.667 0 0 1 5.666 5.667V34a5.667 5.667 0 0 1-11.333 0V5.667A5.667 5.667 0 0 1 34.002 0zM102.002 0a5.667 5.667 0 0 1 5.666 5.667V34a5.667 5.667 0 0 1-11.333 0V5.667A5.667 5.667 0 0 1 102.002 0zM68.002 51a5.667 5.667 0 0 1 5.666 5.667V102a5.667 5.667 0 1 1-11.333 0V56.667A5.667 5.667 0 0 1 68.002 51z"/>
        <path d="M90.668 73.667a5.667 5.667 0 0 1 0 11.333H45.335a5.667 5.667 0 0 1 0-11.333h45.333z"/>
    </g>
</svg>
