<svg width="26" height="26" viewBox="0 0 26 26" xmlns="http://www.w3.org/2000/svg">
    <g fill="#FFF" fill-rule="evenodd">
        <path d="m10.845 6.624 4.04-4.04c.472-.47.885-.47 1.357.001l6.947 6.948c.407.407.411.845.004 1.253-2.73 2.731-5.462 5.461-8.19 8.195-.105.106-.186.13-.332.074-.657-.252-1.255-.125-1.74.368-.476.482-.562 1.076-.326 1.71.052.138.032.215-.068.313-.658.651-1.31 1.308-1.966 1.962-.454.453-.89.452-1.344-.001l-6.899-6.899c-.472-.472-.477-.886-.009-1.357.648-.65 1.301-1.296 1.945-1.95.113-.116.202-.13.354-.072.631.24 1.204.118 1.68-.35.471-.465.584-1.037.37-1.659-.067-.192-.033-.292.102-.426 1.363-1.353 2.718-2.712 4.075-4.07m-.767-.528-4.266 4.266c-.359.36-.368.459-.087.876.2.297.172.654-.071.897-.242.242-.6.267-.897.063-.4-.276-.516-.267-.859.078-.797.802-1.612 1.588-2.382 2.414-.64.686-.62 1.652.041 2.329 1.35 1.381 2.724 2.74 4.089 4.107.998 1 1.995 2 2.997 2.995.612.608 1.481.722 2.173.282.177-.112.33-.266.48-.415.729-.721 1.452-1.447 2.176-2.172.33-.33.339-.467.062-.841a.694.694 0 0 1 1.008-.95c.28.23.484.228.737-.025 2.867-2.865 5.736-5.727 8.595-8.598.736-.739.694-1.777-.051-2.52-2.336-2.329-4.665-4.664-7-6.995-.615-.615-1.521-.734-2.19-.278-.205.14-.385.32-.561.496-1.334 1.328-2.663 2.66-3.994 3.991"/>
        <path d="m11.399 24.227 2.244-2.24c.415-.415.435-.688.087-1.158-.148-.2-.129-.453.04-.61a.46.46 0 0 1 .616-.005c.346.284.664.299.978.035l.136-.128 8.545-8.549c.826-.83.795-2.02-.05-2.863L22.43 7.146l-5.434-5.432c-.696-.696-1.73-.829-2.498-.306a2.815 2.815 0 0 0-.313.252l-.147.138-1.257 1.253-7.14 7.14-.083.086c-.36.388-.358.62-.035 1.098.136.203.118.43-.04.59-.157.156-.383.172-.586.032-.497-.342-.744-.32-1.17.11l-1.37 1.366c-.42.422-.702.714-1.018 1.053-.73.781-.708 1.895.044 2.664l1.555 1.575 5.533 5.53c.691.685 1.684.815 2.474.313.093-.06.181-.128.277-.214l.177-.167zm1.962-2.642-2.034 2.033-.34.335-.158.142c-.049.04-.095.074-.141.104-.593.377-1.338.28-1.872-.251L2.799 17.93c-.38-.383-.71-.717-1.067-1.083-.573-.586-.589-1.405-.04-1.993L2 14.529c.206-.216.423-.438.702-.717l1.476-1.474c.153-.145.185-.115.44.06.39.27.879.235 1.206-.092.328-.328.366-.815.103-1.206l-.09-.134c-.108-.167-.09-.198.082-.37l8.487-8.482a2.77 2.77 0 0 1 .362-.305c.567-.386 1.345-.286 1.883.251l7 6.996c.66.658.683 1.542.052 2.175l-2.323 2.33-6.271 6.268c-.143.143-.208.16-.353.054l-.059-.046a.945.945 0 0 0-1.257.029.937.937 0 0 0-.102 1.255l.092.128c.094.142.076.188-.069.336zm1.813-2.433 8.19-8.196c.502-.503.5-1.095-.002-1.596l-6.947-6.948-.106-.1c-.53-.463-1.062-.43-1.594.102L7.438 9.69l-.838.832c-.18.18-.242.355-.191.58l.028.1c.189.545.087 1.015-.308 1.404-.371.366-.796.481-1.277.345l-.146-.049c-.242-.092-.433-.055-.614.13l-.555.56-1.389 1.39c-.563.566-.559 1.133.008 1.7l6.898 6.898c.547.547 1.138.547 1.688-.001l1.582-1.581.383-.38c.17-.168.21-.346.126-.573-.21-.566-.124-1.053.27-1.453.416-.423.911-.527 1.478-.31.234.09.417.046.593-.13zm-2.797 2.068.014.033-.731.725-1.26 1.259c-.357.357-.64.357-1-.003l-6.899-6.899c-.38-.38-.382-.64-.01-1.013l1.976-1.982a.018.018 0 0 1 .012-.002l.05.018c.718.273 1.393.132 1.938-.406.495-.487.655-1.099.477-1.759l-.047-.153c-.026-.075-.03-.093.007-.136l1.316-1.31 6.836-6.837c.376-.375.635-.375 1.013.003l6.947 6.948c.315.314.316.599.006.909l-8.218 8.225-.044-.012c-.746-.286-1.447-.138-2.001.425-.533.541-.656 1.23-.382 1.967z" fill-rule="nonzero"/>
        <path d="m17.088 12.844 3.054-3.055c.051-.051.105-.101.151-.157a.493.493 0 0 0-.012-.65.46.46 0 0 0-.603-.086c-.183.13-.344.293-.503.453-1.946 1.944-3.89 3.89-5.833 5.836-.074.074-.15.15-.206.237a.5.5 0 0 0 .093.646c.175.153.445.16.628-.004.21-.189.407-.392.608-.592l2.625-2.626-.002-.002z"/>
        <path d="m20.123 9.808-3.033 3.039-2.69 2.69c-.165.166-.278.276-.396.386-.258.238-.591.296-.779.141-.191-.157-.182-.486.028-.767.046-.062.089-.111.156-.18l5.775-5.778c.137-.135.245-.233.36-.323.268-.21.588-.215.739-.032.16.194.109.521-.126.787l-.034.037zm-6.07 5.604 2.801-2.801 3.016-3.02.022-.024c.079-.09.095-.195.039-.263-.046-.055-.141-.054-.213.002-.09.071-.182.154-.302.273l-5.694 5.696a1.69 1.69 0 0 0-.17.184c-.067.091-.07.2-.006.253.058.048.16.03.24-.043l.17-.162.097-.095zM6.85 14.827l4.008 4.009c.05.05.089.085.131.12.223.18.505.195.688.044.186-.154.211-.426.052-.67a1.253 1.253 0 0 0-.147-.182l-.527-.53L7.636 14.2a1.463 1.463 0 0 0-.215-.187c-.244-.166-.529-.146-.692.04-.155.176-.136.462.047.69.023.028.046.054.074.084z" fill-rule="nonzero"/>
        <path d="M12.382 10.143c-.593.593-1.189 1.184-1.778 1.781-.198.2-.193.477-.009.683.167.186.446.21.667.054a.706.706 0 0 0 .09-.078c1.159-1.157 2.318-2.314 3.473-3.475.23-.23.226-.526.016-.74-.205-.208-.49-.193-.73.047-.579.574-1.154 1.151-1.73 1.728z"/>
        <path d="m14.693 9.243-3.207 3.208c-.036.036-.073.07-.111.1-.285.22-.616.247-.782.053-.178-.208-.122-.547.145-.817l.456-.459 2.783-2.781c.307-.306.662-.384.868-.174.207.21.145.571-.152.87zm-3.496 3.02.026-.022 3.233-3.233c.12-.121.139-.231.061-.31-.069-.07-.17-.049-.305.086l-3.235 3.237c-.093.094-.11.194-.044.271.052.061.159.052.264-.03z" fill-rule="nonzero"/>
    </g>
</svg>
