<svg width="24" height="24" viewBox="0 0 24 24" xmlns="http://www.w3.org/2000/svg">
    <g fill="#B1B2B4" fill-rule="nonzero">
        <path d="M23 9a1 1 0 0 1 0 2H1a1 1 0 1 1 0-2h22z"/>
        <path d="M21 3H3a3 3 0 0 0-3 3v12a3 3 0 0 0 3 3h18a3 3 0 0 0 3-3V6a3 3 0 0 0-3-3zm0 2a1 1 0 0 1 1 1v12a1 1 0 0 1-1 1H3a1 1 0 0 1-1-1V6a1 1 0 0 1 1-1h18z"/>
        <path d="M8 14.99a1 1 0 0 1 1 1A1 1 0 1 1 7 16c0-.562.448-1.01 1-1.01zM5 14.99a1 1 0 0 1 1 1A1 1 0 1 1 4 16c0-.562.448-1.01 1-1.01z"/>
    </g>
</svg>
