<svg width="24" height="24" viewBox="0 0 24 24" xmlns="http://www.w3.org/2000/svg">
    <g fill="none" fill-rule="evenodd">
        <path d="M0 0h24v24H0z"/>
        <path d="m6.405 2.229-1.53 5.295-.024.094C1.908 8.06 0 8.77 0 9.57 0 10.911 5.373 12 12 12s12-1.089 12-2.43c0-.8-1.908-1.51-4.851-1.952a1.595 1.595 0 0 0-.024-.094l-1.53-5.297c-.25-.863-1.196-1.375-2.124-1.189-1.052.21-2.408.433-3.471.433-1.063 0-2.419-.22-3.471-.433-.928-.186-1.874.324-2.124 1.19zm-.403 7.577a.532.532 0 0 1 .153-.337.38.38 0 0 1 .31-.11c1.524.183 3.233.285 5.035.285 1.681.005 3.361-.09 5.034-.286.233-.027.44.173.464.448.023.275-.146.52-.38.548a43.5 43.5 0 0 1-5.118.29 43.5 43.5 0 0 1-5.119-.29.409.409 0 0 1-.285-.18.565.565 0 0 1-.094-.368zM4.833 16h3.334c.46 0 .833.373.833.833V18.5a2.5 2.5 0 1 1-5 0v-1.667c0-.46.373-.833.833-.833zm-2.987.7c0-.315.05-.62.144-.9h-.144c-.467 0-.846-.403-.846-.9s.379-.9.846-.9H7.77c1.28 0 2.358 1.012 2.518 2.362a5.584 5.584 0 0 1 3.426 0c.16-1.35 1.239-2.362 2.518-2.362h5.923c.467 0 .846.403.846.9s-.379.9-.846.9h-.144c.093.28.144.585.144.9v1.8c0 2.485-1.894 4.5-4.23 4.5-2.338 0-4.232-2.015-4.232-4.5v-.252l-.355-.126a3.991 3.991 0 0 0-2.674 0l-.355.126v.252c0 2.485-1.894 4.5-4.231 4.5-2.337 0-4.23-2.015-4.23-4.5v-1.8zm13.987-.7h3.334c.46 0 .833.373.833.833V18.5a2.5 2.5 0 1 1-5 0v-1.667c0-.46.373-.833.833-.833z" fill="#F49D7D" fill-rule="nonzero"/>
    </g>
</svg>
