<svg width="64" height="64" viewBox="0 0 64 64" xmlns="http://www.w3.org/2000/svg">
    <g fill="#000" fill-rule="evenodd">
        <path d="M34.434 55.965c1.107-1.107 1.16-1.835.234-3.088-.395-.534-.344-1.208.104-1.627.452-.422 1.13-.434 1.645-.012.921.756 1.77.795 2.608.094l.361-.343 22.789-22.797c2.202-2.212 2.119-5.388-.133-7.634l-4.176-4.168L43.377 1.905c-1.857-1.856-4.616-2.21-6.662-.816-.278.19-.544.404-.836.67l-.39.37-3.352 3.34-19.041 19.042-.22.229c-.96 1.033-.956 1.65-.095 2.928.365.54.316 1.147-.107 1.57-.417.418-1.022.46-1.562.088-1.325-.912-1.984-.853-3.12.29L4.34 33.262a112.88 112.88 0 0 0-2.716 2.808c-1.944 2.083-1.888 5.054.116 7.104l4.149 4.2 14.754 14.746c1.843 1.829 4.49 2.174 6.597.835.25-.158.483-.34.74-.57l.47-.447 5.984-5.972zm-3.337-1.958-1.95 1.934-3.358 3.357c-.955.953-1.71.952-2.669-.007L4.724 40.894c-1.015-1.014-1.02-1.707-.029-2.703l5.27-5.285a.048.048 0 0 1 .033-.004l.133.049c1.916.727 3.714.35 5.169-1.083 1.32-1.3 1.746-2.932 1.271-4.691l-.126-.408c-.07-.202-.082-.25.019-.362l3.51-3.497 18.23-18.23c1-1 1.692-1 2.7.008l18.527 18.527c.839.839.842 1.598.015 2.425L37.53 47.574l-.116-.034c-1.99-.761-3.859-.365-5.337 1.135-1.42 1.443-1.749 3.28-1.017 5.244l.037.088z"/>
        <path d="m43.628 31.591 8.088-8.102.014-.016.035-.036c.138-.137.28-.27.404-.419.428-.512.411-1.225-.033-1.734-.39-.446-1.092-.591-1.608-.228-.39.276-.743.61-1.086.951l-.179.18-.053.05-3.08 3.083-4.723 4.722-3.43 3.434-4.166 4.168a9.558 9.558 0 0 0-.05.051c-.04.043-.084.087-.128.13-.197.198-.398.4-.55.632a1.331 1.331 0 0 0 .247 1.724 1.263 1.263 0 0 0 1.675-.01c.374-.335.733-.689 1.088-1.045l7.535-7.535z"/>
        <path d="M16.321 36.87 27.01 47.563c.134.133.237.228.35.319.595.48 1.345.522 1.833.12.496-.41.563-1.136.139-1.788a3.34 3.34 0 0 0-.391-.486l-1.407-1.412-9.116-9.116a3.902 3.902 0 0 0-.575-.498c-.649-.443-1.41-.388-1.844.105-.414.47-.363 1.233.126 1.84.06.076.123.146.197.225z" fill-rule="nonzero"/>
        <path d="M28.084 31.096c.087-.062.168-.133.243-.208l.301-.3.055-.052 2.36-2.36 1.918-1.918 1.292-1.292 2.98-2.985c.03-.03.06-.06.088-.091l.266-.269c.587-.59.603-1.338.11-1.9l-.056-.06-.011-.012c-.548-.554-1.305-.516-1.95.123l-.29.29-.065.063-1.49 1.49-.461.46-1.296 1.296-4.173 4.171-1.216 1.225-.057.06-.3.304c-.523.53-.515 1.256-.04 1.803l.01.011a.95.95 0 0 0 .083.085l-.078-.079c.444.498 1.189.56 1.777.145z"/>
        <g fill-rule="nonzero">
            <path d="M53.161 45.935c.5 0 .904.324.904.723v13.007c0 .399-.405.722-.904.722s-.903-.323-.903-.722V46.658c0-.399.404-.723.903-.723z"/>
            <path d="M59.665 52.258c.399 0 .722.404.722.903 0 .5-.323.904-.722.904H46.658c-.399 0-.723-.405-.723-.904s.324-.903.723-.903h13.007z"/>
        </g>
    </g>
</svg>
