<svg width="24" height="24" viewBox="0 0 24 24" xmlns="http://www.w3.org/2000/svg">
    <g fill="none" fill-rule="evenodd">
        <path d="M0 0h24v24H0z"/>
        <path d="M3.945 4.002a1 1 0 0 1 1.054.943l.895 16.107c.03.532.47.948 1.002.948h10.208c.533 0 .973-.416 1.003-.948l.895-16.107a1 1 0 0 1 1.997.11l-.895 16.107a3.004 3.004 0 0 1-3 2.838H6.896a3.004 3.004 0 0 1-3-2.838L3.003 5.055a1 1 0 0 1 .943-1.053z" fill="#3B3C43" fill-rule="nonzero"/>
        <path d="M15 0a3 3 0 0 1 3 3v2a1 1 0 0 1-1 1H7a1 1 0 0 1-1-1V3a3 3 0 0 1 3-3h6zm0 2H9a1 1 0 0 0-1 1v1h8V3c0-.512-.386-.935-.883-.993L15 2z" fill="#3B3C43" fill-rule="nonzero"/>
        <path d="M21 4a1 1 0 0 1 0 2H3a1 1 0 1 1 0-2h18z" fill="#3B3C43" fill-rule="nonzero"/>
    </g>
</svg>
