<svg width="43" height="42" viewBox="0 0 43 42" xmlns="http://www.w3.org/2000/svg">
    <g fill="#A0D4CD" fill-rule="nonzero">
        <path d="M14.626 31.094a5.158 5.158 0 0 0-5.157 5.156 5.158 5.158 0 0 0 5.157 5.156 5.158 5.158 0 0 0 5.156-5.156 5.158 5.158 0 0 0-5.156-5.156zm0 3.437a1.72 1.72 0 0 1 0 3.438 1.72 1.72 0 0 1-1.72-1.719c0-.948.771-1.719 1.72-1.719zM28.376 31.094a5.158 5.158 0 0 1 5.156 5.156v3.438a1.719 1.719 0 0 1-3.438 0V36.25a1.72 1.72 0 0 0-1.718-1.719 1.72 1.72 0 0 0-1.72 1.719v3.438a1.719 1.719 0 0 1-3.437 0V36.25a5.158 5.158 0 0 1 5.157-5.156z"/>
        <path d="M14.626 25.938c.949 0 1.718.769 1.718 1.718v5.157a1.719 1.719 0 0 1-3.437 0v-5.157c0-.949.77-1.718 1.719-1.718zM28.376 25.938c.949 0 1.718.769 1.718 1.718v5.157a1.719 1.719 0 0 1-3.437 0v-5.157c0-.949.77-1.718 1.719-1.718zM21.5.156c-5.694 0-10.312 4.62-10.312 10.313 0 5.693 4.618 10.312 10.313 10.312 5.694 0 10.312-4.619 10.312-10.312 0-5.694-4.618-10.313-10.312-10.313zm0 3.438a6.877 6.877 0 0 1 6.876 6.875 6.877 6.877 0 0 1-6.875 6.875 6.877 6.877 0 0 1-6.875-6.875A6.877 6.877 0 0 1 21.5 3.594z"/>
        <path d="M21.5 24.219c9.333 0 17.188 4.582 17.188 10.742v4.727a1.719 1.719 0 0 1-3.437 0V34.96c0-3.767-6.066-7.305-13.75-7.305-7.685 0-13.75 3.538-13.75 7.305v4.727a1.719 1.719 0 0 1-3.438 0V34.96c0-6.16 7.855-10.742 17.188-10.742z"/>
    </g>
</svg>
