<svg width="24" height="24" viewBox="0 0 24 24" xmlns="http://www.w3.org/2000/svg">
    <g fill="#000" fill-rule="nonzero">
        <path d="M12 2.998c3 0 5.927 1.437 8.455 3.765C22.451 8.6 24 10.862 24 11.998c0 .75-.623 1.893-1.613 3.15a1 1 0 0 1-1.571-1.236c.396-.504.72-.986.94-1.388.163-.301.244-.522.244-.526 0-.399-1.29-2.282-2.9-3.764-2.099-1.933-4.466-3.133-6.797-3.23L12 4.999c-.201 0-.372.013-.773.053a1 1 0 1 1-.2-1.99l.488-.044c.178-.013.32-.019.485-.019zM1.61 8.85a1 1 0 1 1 1.572 1.236c-.395.503-.719.984-.937 1.387a3.97 3.97 0 0 0-.245.526c0 .399 1.29 2.282 2.9 3.764 2.1 1.934 4.466 3.133 6.797 3.23l.304.006c.199 0 .37-.013.768-.053a1 1 0 1 1 .2 1.99l-.485.044c-.177.013-.319.019-.483.019-3.001 0-5.928-1.437-8.456-3.765C1.549 15.396 0 13.136 0 12c0-.748.623-1.895 1.61-3.15zM.293.293a1 1 0 0 1 1.414 0l22 22a1 1 0 0 1-1.414 1.414l-22-22a1 1 0 0 1 0-1.414z"/>
    </g>
</svg>
