<svg width="24" height="24" viewBox="0 0 24 24" xmlns="http://www.w3.org/2000/svg">
    <g fill="#B1B2B4" fill-rule="nonzero">
        <path d="M11.5 18c-.2 0-.4-.1-.6-.2l-3-2c-.5-.3-.6-.9-.3-1.4.4-.4 1-.5 1.5-.2l2.2 1.4 3.4-5.2c.3-.4.9-.5 1.4-.2.5.3.6.9.3 1.4l-4 6c-.2.2-.4.3-.7.4h-.2z"/>
        <path d="M19 24H5c-1.7 0-3-1.3-3-3V6c0-1.7 1.3-3 3-3h2.4C8.2 1.2 10 0 12 0c2 0 3.8 1.2 4.6 3H19c1.7 0 3 1.3 3 3v15c0 1.7-1.3 3-3 3zM5 5c-.6 0-1 .4-1 1v15c0 .6.4 1 1 1h14c.6 0 1-.4 1-1V6c0-.6-.4-1-1-1h-3.1c-.5 0-.9-.3-1-.7C14.5 2.9 13.4 2 12 2s-2.5.9-2.9 2.3c-.1.4-.5.7-1 .7H5z"/>
        <path d="M12 6c-.6 0-1-.4-1-1s.4-1 1-1 1 .4 1 1-.4 1-1 1z"/>
    </g>
</svg>
