<svg width="24" height="24" viewBox="0 0 24 24" xmlns="http://www.w3.org/2000/svg">
    <g fill="#00A291" fill-rule="nonzero">
        <path d="M7.435 11.97C3.682 9.03 4.66 4.557 6.86 2.629 9.509.306 13.565.48 15.914 3.07c2.128 2.34 2.242 6.374-1.058 8.897.487.165.938.306 1.373.47.39.145.694.444.642.85-.05.346-.223.662-.488.89-.197.151-.614.15-.878.056-1.715-.606-3.479-.798-5.28-.693-1.754.104-3.441.494-4.963 1.397-1.136.673-2.132 1.51-2.259 2.933-.06.678.079 1.377.164 2.062.045.354.278.497.664.496 4.76-.018 9.52-.026 14.284-.022.444 0 .73-.095.907-.564.197-.528.756-.714 1.251-.512.475.191.693.721.516 1.259-.39 1.193-1.094 1.732-2.344 1.737-4.9.02-9.798.034-14.695.04-1.273 0-2.095-.562-2.419-1.798-.741-2.81-.333-5.01 2.2-6.796.948-.667 2.091-1.058 3.152-1.563.245-.097.496-.176.752-.238zm8.056-4.947c-.009-2.262-1.942-4.097-4.315-4.095-2.398 0-4.329 1.851-4.322 4.14 0 2.24 1.98 4.095 4.342 4.067 2.388-.02 4.3-1.857 4.295-4.112z"/>
        <path d="M17.352 16.836c1.212-1.112 2.425-2.225 3.64-3.337.154-.14.285-.307.449-.432a.931.931 0 0 1 1.276.078.961.961 0 0 1 .104 1.24 2.349 2.349 0 0 1-.272.312c-1.39 1.434-2.78 2.866-4.17 4.296-.644.66-1.118.656-1.764-.006-.62-.634-1.235-1.27-1.847-1.908-.462-.483-.496-1.077-.094-1.478.403-.4.995-.363 1.477.1.453.43.904.857 1.2 1.135z"/>
    </g>
</svg>
