<svg width="24" height="24" viewBox="0 0 24 24" xmlns="http://www.w3.org/2000/svg">
    <g fill="#FFF" fill-rule="nonzero">
        <path d="M21 2H3a3 3 0 0 0-3 3v16a3 3 0 0 0 3 3h18a3 3 0 0 0 3-3V5a3 3 0 0 0-3-3zm0 2a1 1 0 0 1 1 1v16a1 1 0 0 1-1 1H3a1 1 0 0 1-1-1V5a1 1 0 0 1 1-1h18z"/>
        <path d="M6 0a1 1 0 0 1 1 1v5a1 1 0 1 1-2 0V1a1 1 0 0 1 1-1zM18 0a1 1 0 0 1 1 1v5a1 1 0 0 1-2 0V1a1 1 0 0 1 1-1zM12 9a1 1 0 0 1 1 1v8a1 1 0 0 1-2 0v-8a1 1 0 0 1 1-1z"/>
        <path d="M16 13a1 1 0 0 1 0 2H8a1 1 0 0 1 0-2h8z"/>
    </g>
</svg>
