<svg width="16" height="16" viewBox="0 0 16 16" xmlns="http://www.w3.org/2000/svg">
    <g fill="#FFF" fill-rule="nonzero">
        <path d="m2.725 1.273-.803.839C.956 3.12.542 4.567.805 5.973c.866 4.64 4.375 8.309 8.83 9.218a4.048 4.048 0 0 0 3.745-1.179l.803-.838c.68-.712.68-1.855 0-2.567l-1.689-1.765-.082-.08a1.738 1.738 0 0 0-2.447.08L8.868 9.99 8.702 9.9a6.871 6.871 0 0 1-2.868-3.093l-.014-.03 1.123-1.173c.68-.712.68-1.855 0-2.566L5.254 1.273a1.74 1.74 0 0 0-2.53 0zm1.654.838 1.688 1.764a.657.657 0 0 1 0 .891l-1.4 1.464a.606.606 0 0 0-.125.644c.793 1.983 2.315 3.573 4.218 4.406a.606.606 0 0 0 .681-.137l1.4-1.463a.527.527 0 0 1 .777 0l1.689 1.764a.656.656 0 0 1 0 .892l-.803.839a2.836 2.836 0 0 1-2.627.828c-3.964-.81-7.104-4.091-7.88-8.252-.192-1.027.108-2.078.801-2.802l.803-.838a.528.528 0 0 1 .778 0zM8.87.727c3.222 0 5.823 2.72 5.823 6.06a.606.606 0 0 1-1.212 0c0-2.683-2.07-4.848-4.611-4.848a.606.606 0 1 1 0-1.212z"/>
        <path d="M8.87 3.152c1.941 0 3.504 1.634 3.504 3.636a.606.606 0 1 1-1.212 0c0-1.345-1.033-2.424-2.292-2.424a.606.606 0 0 1 0-1.212z"/>
    </g>
</svg>
