<svg width="28" height="28" viewBox="0 0 28 28" xmlns="http://www.w3.org/2000/svg">
    <g fill="#FFF" fill-rule="evenodd">
        <path d="M5.75 5.75c-4.556 4.557-4.556 11.943 0 16.5 4.557 4.556 11.943 4.556 16.5 0 4.556-4.557 4.556-11.943 0-16.5-4.557-4.556-11.943-4.556-16.5 0zm15.125 1.375c3.797 3.797 3.797 9.953 0 13.75-3.797 3.797-9.953 3.797-13.75 0-3.797-3.797-3.797-9.953 0-13.75 3.728-3.727 9.73-3.795 13.54-.203l.21.203z" fill-rule="nonzero"/>
        <path d="M5.75 22.25 22.166 5.832"/>
        <path fill-rule="nonzero" d="m21.342 5.008 1.65 1.65L6.575 23.075l-1.65-1.65z"/>
    </g>
</svg>
