<svg width="84" height="84" viewBox="0 0 84 84" xmlns="http://www.w3.org/2000/svg">
    <g fill="#FFF" fill-rule="nonzero" opacity=".459">
        <path d="M42.001 0c-11.594 0-21 9.405-21 21s9.406 21 21 21 21-9.405 21-21-9.406-21-21-21zm0 7c7.728 0 14 6.27 14 14s-6.272 14-14 14-14-6.27-14-14 6.272-14 14-14zM42.001 49c19.006 0 35 9.328 35 21.875V80.5a3.5 3.5 0 0 1-7 0v-9.625c0-7.672-12.35-14.875-28-14.875s-28 7.203-28 14.875V80.5a3.5 3.5 0 0 1-7 0v-9.625c0-12.547 15.994-21.875 35-21.875z"/>
    </g>
</svg>
