<svg width="27" height="24" viewBox="0 0 27 24" xmlns="http://www.w3.org/2000/svg">
    <g fill="#0E3B83" fill-rule="nonzero">
        <path d="M13.654 18.282a1 1 0 0 1 1.22.717 4 4 0 1 1-7.747 0 1 1 0 0 1 1.958.388l-.022.114a2 2 0 1 0 3.91.162l-.035-.162a1 1 0 0 1 .716-1.219z"/>
        <path d="m11 0-.24.004A7.001 7.001 0 0 0 4 7v4.732L.132 18.504A1 1 0 0 0 1 20h20l.113-.006a1 1 0 0 0 .756-1.49L18 11.734V7a7 7 0 0 0-7-7zm0 2a5 5 0 0 1 5 5v5l.009.13a1 1 0 0 0 .123.366L19.276 18H2.723l3.146-5.504A1 1 0 0 0 6 12V7a5 5 0 0 1 5-5z"/>
    </g>
</svg>
