<svg width="16" height="16" viewBox="0 0 16 16" xmlns="http://www.w3.org/2000/svg">
    <g fill="#3B3C43" fill-rule="nonzero">
        <path d="M8 0a4 4 0 0 1 3.933 3.265l.01.068H14a2 2 0 0 1 1.997 1.883l.003.117v10a.667.667 0 1 1-1.333 0v-10A.667.667 0 0 0 14 4.667h-2.667A.667.667 0 0 1 10.667 4a2.666 2.666 0 1 0-5.334 0 .667.667 0 0 1-.666.667H2a.667.667 0 0 0-.667.666v10a.667.667 0 1 1-1.333 0v-10a2 2 0 0 1 2-2h2.056l.011-.068A4 4 0 0 1 7.85.003L8 0z"/>
        <path d="M8 2c.368 0 .667.298.667.667v2.666a.667.667 0 0 1-1.334 0V2.667C7.333 2.298 7.632 2 8 2z"/>
        <path d="M9.333 3.333a.667.667 0 0 1 0 1.334H6.667a.667.667 0 0 1 0-1.334h2.666zM3.333 7.333c.369 0 .667.299.667.667v.666a.667.667 0 0 1-1.333 0V8c0-.368.298-.667.666-.667zM6 7.333c.368 0 .667.299.667.667v.666a.667.667 0 0 1-1.334 0V8c0-.368.299-.667.667-.667zM10 7.333c.368 0 .667.299.667.667v.666a.667.667 0 0 1-1.334 0V8c0-.368.299-.667.667-.667zM12.667 7.333c.368 0 .666.299.666.667v.666a.667.667 0 1 1-1.333 0V8c0-.368.298-.667.667-.667zM3.333 10.666c.369 0 .667.298.667.667v.666a.667.667 0 0 1-1.333 0v-.666c0-.369.298-.667.666-.667zM6 10.666c.368 0 .667.298.667.667v.666a.667.667 0 0 1-1.334 0v-.666c0-.369.299-.667.667-.667zM10 10.666c.368 0 .667.298.667.667v.666a.667.667 0 0 1-1.334 0v-.666c0-.369.299-.667.667-.667zM12.667 10.666c.368 0 .666.298.666.667v.666a.667.667 0 1 1-1.333 0v-.666c0-.369.298-.667.667-.667z"/>
    </g>
</svg>
