<svg width="24" height="24" viewBox="0 0 24 24" xmlns="http://www.w3.org/2000/svg">
    <g fill="#A0B7DD" fill-rule="nonzero">
        <path d="M12 10a1 1 0 0 1 1 1v6a1 1 0 0 1-2 0v-6a1 1 0 0 1 1-1zM12 6.99a1 1 0 0 1 1 1A1 1 0 1 1 11 8c0-.561.448-1.01 1-1.01z"/>
        <path d="M3.515 3.515c-4.687 4.686-4.687 12.285 0 16.971 4.686 4.687 12.285 4.687 16.971 0 4.687-4.686 4.687-12.285 0-16.971-4.686-4.687-12.285-4.687-16.971 0zm15.557 1.414c3.905 3.906 3.905 10.237 0 14.143-3.906 3.905-10.237 3.905-14.143 0-3.905-3.906-3.905-10.237 0-14.143 3.835-3.834 10.008-3.904 13.927-.209l.216.21z"/>
    </g>
</svg>
