<svg width="77" height="118" viewBox="0 0 77 118" xmlns="http://www.w3.org/2000/svg" xmlns:xlink="http://www.w3.org/1999/xlink">
    <defs>
        <path id="8xuk3pusqa" d="M0 0h77v118H0z"/>
    </defs>
    <g fill="none" fill-rule="evenodd">
        <mask id="8rhl6j3tzb" fill="#fff">
            <use xlink:href="#8xuk3pusqa"/>
        </mask>
        <g mask="url(#8rhl6j3tzb)" fill="#A0D4CD" fill-rule="nonzero">
            <path d="M27.72 64.426C18.101 54.96 6.565 54.126 3.83 54H0v21.982c.187 2.761 1.272 14.195 10.826 23.592 9.623 9.462 21.159 10.3 23.895 10.426h7.558c2.74-.127 14.276-.964 23.895-10.426 9.62-9.462 10.639-20.83 10.826-23.592V54h-3.825c-2.74.127-14.272.96-23.895 10.426-8.961 8.817-10.455 19.421-10.778 22.977-.31-3.556-1.816-14.16-10.782-22.977zM40.05 84.41a20.611 20.611 0 0 1 8.152-9.057c4.24-2.539 8.631-2.65 13.43-2.686H77a24.908 24.908 0 0 1-1.956 6.111 20.611 20.611 0 0 1-8.152 9.057c-4.24 2.539-8.63 2.65-13.43 2.687H38.096a24.908 24.908 0 0 1 1.956-6.112zM15.369 72.673c4.794.04 9.19.152 13.43 2.685 3.559 2.12 6.399 5.276 8.147 9.054a24.898 24.898 0 0 1 1.96 6.11h-15.38c-4.795-.04-9.19-.152-13.43-2.686a20.594 20.594 0 0 1-8.135-9.054A24.898 24.898 0 0 1 0 72.672h8.786c2.182 0 4.378-.013 6.573 0h.009z" opacity=".178"/>
            <path d="M27.72 10.426C18.101.96 6.565.126 3.83 0H0v21.982c.187 2.761 1.272 14.195 10.826 23.592C20.449 55.036 31.985 55.874 34.72 56h7.558c2.74-.127 14.276-.964 23.895-10.426 9.62-9.462 10.639-20.83 10.826-23.592V0h-3.825c-2.74.127-14.272.96-23.895 10.426-8.961 8.817-10.455 19.421-10.778 22.977-.31-3.556-1.816-14.16-10.782-22.977zm12.33 20.796a20.611 20.611 0 0 1 8.152-9.057c4.24-2.539 8.631-2.65 13.43-2.687H77a24.908 24.908 0 0 1-1.956 6.112 20.611 20.611 0 0 1-8.152 9.057c-4.24 2.539-8.63 2.65-13.43 2.686H38.096a24.908 24.908 0 0 1 1.956-6.111zM15.369 19.484c4.794.04 9.19.152 13.43 2.686 3.559 2.119 6.399 5.275 8.147 9.054a24.898 24.898 0 0 1 1.96 6.11h-15.38c-4.795-.04-9.19-.153-13.43-2.686a20.594 20.594 0 0 1-8.135-9.054A24.898 24.898 0 0 1 0 19.484h8.786c2.182 0 4.378-.013 6.573 0h.009zM27.72 116.426C18.101 106.96 6.565 106.126 3.83 106H0v21.982c.187 2.761 1.272 14.195 10.826 23.592 9.623 9.462 21.159 10.3 23.895 10.426h7.558c2.74-.127 14.276-.964 23.895-10.426 9.62-9.462 10.639-20.83 10.826-23.592V106h-3.825c-2.74.127-14.272.96-23.895 10.426-8.961 8.817-10.455 19.421-10.778 22.977-.31-3.556-1.816-14.16-10.782-22.977zm12.33 20.796a20.611 20.611 0 0 1 8.152-9.057c4.24-2.539 8.631-2.65 13.43-2.687H77a24.908 24.908 0 0 1-1.956 6.112 20.611 20.611 0 0 1-8.152 9.057c-4.24 2.539-8.63 2.65-13.43 2.686H38.096a24.908 24.908 0 0 1 1.956-6.111zm-24.682-11.738c4.794.04 9.19.152 13.43 2.686 3.559 2.119 6.399 5.275 8.147 9.054a24.898 24.898 0 0 1 1.96 6.11h-15.38c-4.795-.04-9.19-.153-13.43-2.686a20.594 20.594 0 0 1-8.135-9.054 24.898 24.898 0 0 1-1.96-6.11h8.786c2.182 0 4.378-.013 6.573 0h.009z" opacity=".089"/>
        </g>
    </g>
</svg>
