<svg width="137" height="137" viewBox="0 0 137 137" xmlns="http://www.w3.org/2000/svg">
    <defs>
        <filter x="-22%" y="-22%" width="143.9%" height="143.9%" filterUnits="objectBoundingBox" id="jb09a1qnpa">
            <feOffset dy="2" in="SourceAlpha" result="shadowOffsetOuter1"/>
            <feGaussianBlur stdDeviation="2" in="shadowOffsetOuter1" result="shadowBlurOuter1"/>
            <feColorMatrix values="0 0 0 0 0 0 0 0 0 0 0 0 0 0 0 0 0 0 0.119372815 0" in="shadowBlurOuter1" result="shadowMatrixOuter1"/>
            <feMerge>
                <feMergeNode in="shadowMatrixOuter1"/>
                <feMergeNode in="SourceGraphic"/>
            </feMerge>
        </filter>
    </defs>
    <g fill="none" fill-rule="evenodd">
        <g fill-rule="nonzero">
            <path d="M84.132 40.54C101.145 30.362 118.609 27.12 137 26v111H26c0-14.877 5.925-32.025 12.022-45.415 9.655-21.235 26.2-39.15 46.11-51.044z" fill="#00A291"/>
            <path d="M52.864 96.466C35.82 106.623 18.384 109.88 0 111V0h111c0 14.878-5.926 32.028-12.03 45.418-9.648 21.237-26.195 39.17-46.106 51.048z" fill="#D0DBEE"/>
        </g>
        <g filter="url(#jb09a1qnpa)" transform="translate(41 40)" stroke="#FFF" stroke-linecap="round" stroke-linejoin="round" stroke-width="5">
            <path d="M60 66H6c-3.312 0-6-2.688-6-6V12c0-3.312 2.688-6 6-6h54c3.312 0 6 2.688 6 6v48c0 3.312-2.688 6-6 6zM15 0v15M51 0v15M33 27v24M21 39h24"/>
        </g>
    </g>
</svg>
