<svg width="24" height="24" viewBox="0 0 24 24" xmlns="http://www.w3.org/2000/svg">
    <g fill="#B1B2B4" fill-rule="nonzero">
        <path d="M21 0h-7.008c-.788 0-1.546.311-2.107.865l-11 10.837A3.002 3.002 0 0 0 .88 15.95l7.171 7.17a3 3 0 0 0 4.242.001l10.844-11.006c.553-.561.864-1.318.864-2.107V3a3 3 0 0 0-3-3zm0 2a1 1 0 0 1 1 1v7.008c0 .262-.104.515-.289.703L10.873 21.712a.998.998 0 0 1-1.408-.006l-7.172-7.17a1 1 0 0 1 .001-1.415L13.29 2.29c.188-.185.441-.289.703-.289H21z"/>
        <path d="M18 5a1 1 0 0 1 .994.883l.006.128a1 1 0 0 1-1.993.117L17 6a1 1 0 0 1 1-1z"/>
    </g>
</svg>
