<svg width="25" height="24" viewBox="0 0 25 24" xmlns="http://www.w3.org/2000/svg">
    <g fill="#B1B2B4" fill-rule="nonzero">
        <path d="M23.462 9a1 1 0 0 1 0 2h-22a1 1 0 0 1 0-2h22z"/>
        <path d="M21.462 2h-18a3 3 0 0 0-3 3v16a3 3 0 0 0 3 3h18a3 3 0 0 0 3-3V5a3 3 0 0 0-3-3zm0 2a1 1 0 0 1 1 1v16a1 1 0 0 1-1 1h-18a1 1 0 0 1-1-1V5a1 1 0 0 1 1-1h18z"/>
        <path d="M6.462 0a1 1 0 0 1 1 1v5a1 1 0 1 1-2 0V1a1 1 0 0 1 1-1zM18.462 0a1 1 0 0 1 1 1v5a1 1 0 0 1-2 0V1a1 1 0 0 1 1-1zM16.962 13a3.5 3.5 0 1 0 0 7 3.5 3.5 0 0 0 0-7zm0 2a1.5 1.5 0 1 1 0 3 1.5 1.5 0 0 1 0-3z"/>
    </g>
</svg>
