<svg width="24" height="24" viewBox="0 0 24 24" xmlns="http://www.w3.org/2000/svg">
    <g fill="#00A291" fill-rule="nonzero">
        <path d="M6 7a1 1 0 0 1 1 1v8a1 1 0 0 1-2 0V8a1 1 0 0 1 1-1zM14 7a1 1 0 0 1 1 1v4a1 1 0 0 1-2 0V8a1 1 0 0 1 1-1zM10 7a1 1 0 0 1 1 1v4a1 1 0 0 1-2 0V8a1 1 0 0 1 1-1zM18 7a1 1 0 0 1 1 1v8a1 1 0 0 1-2 0V8a1 1 0 0 1 1-1zM6 2a1 1 0 1 1 0 2H2v4a1 1 0 0 1-.883.993L1 9a1 1 0 0 1-1-1V3a1 1 0 0 1 1-1h5zM1 15a1 1 0 0 1 1 1v4h4a1 1 0 0 1 .994.883L7 21a1 1 0 0 1-1 1H1a1 1 0 0 1-1-1v-5a1 1 0 0 1 1-1zM23 2a1 1 0 0 1 1 1v5a1 1 0 0 1-2 0V4h-4a1 1 0 0 1-.993-.883L17 3a1 1 0 0 1 1-1h5zM23 15a1 1 0 0 1 1 1v5a1 1 0 0 1-1 1h-5a1 1 0 0 1 0-2h4v-4a1 1 0 0 1 .884-.993L23 15z"/>
    </g>
</svg>
