<svg width="24" height="24" viewBox="0 0 24 24" xmlns="http://www.w3.org/2000/svg">
    <g fill="#B1B2B4" fill-rule="nonzero">
        <path d="M12 14c4.363 0 8 2.792 8 6.375V22a1 1 0 0 1-2 0v-1.625C18 18.03 15.357 16 12 16s-6 2.03-6 4.375V22a1 1 0 0 1-2 0v-1.625C4 16.792 7.637 14 12 14zM1.237 15.354a1 1 0 1 1 1.526 1.292c-.504.595-.763 1.25-.763 1.92V21a1 1 0 0 1-2 0v-2.435c0-1.162.438-2.268 1.237-3.211zM21.354 15.237a1 1 0 0 1 1.41.117c.798.943 1.236 2.049 1.236 3.211V21a1 1 0 0 1-2 0v-2.435c0-.67-.26-1.324-.763-1.919a1 1 0 0 1 .117-1.41zM12.5 1A5.505 5.505 0 0 0 7 6.5C7 9.533 9.467 12 12.5 12S18 9.533 18 6.5 15.533 1 12.5 1zm0 2C14.429 3 16 4.571 16 6.5S14.429 10 12.5 10A3.505 3.505 0 0 1 9 6.5C9 4.571 10.571 3 12.5 3zM19.414 4.528a1 1 0 0 1 1.354-.41A4.189 4.189 0 0 1 23 7.812c0 2.214-1.723 4.032-3.93 4.186a1 1 0 1 1-.14-1.996c1.166-.08 2.07-1.034 2.07-2.19 0-.754-.392-1.44-1.025-1.842l-.15-.088a1 1 0 0 1-.41-1.354zM3.231 4.119A1 1 0 0 1 4.275 5.82l-.1.061A2.192 2.192 0 0 0 3 7.812c0 1.155.904 2.108 2.07 2.19a1 1 0 1 1-.14 1.996C2.723 11.842 1 10.025 1 7.812A4.19 4.19 0 0 1 3.231 4.12z"/>
    </g>
</svg>
