<svg width="114" height="131" viewBox="0 0 114 131" xmlns="http://www.w3.org/2000/svg">
    <defs>
        <filter x="-32.1%" y="-26.5%" width="164.3%" height="152.9%" filterUnits="objectBoundingBox" id="obot3dgs6a">
            <feOffset dy="2" in="SourceAlpha" result="shadowOffsetOuter1"/>
            <feGaussianBlur stdDeviation="4" in="shadowOffsetOuter1" result="shadowBlurOuter1"/>
            <feColorMatrix values="0 0 0 0 0 0 0 0 0 0 0 0 0 0 0 0 0 0 0.121885927 0" in="shadowBlurOuter1" result="shadowMatrixOuter1"/>
            <feMerge>
                <feMergeNode in="shadowMatrixOuter1"/>
                <feMergeNode in="SourceGraphic"/>
            </feMerge>
        </filter>
    </defs>
    <g fill="none" fill-rule="evenodd">
        <path d="M113.175 40.998v10.584c-2.957 43.023-38.233 77.005-81.968 78.96h-9.002v-51.04c2.944-43.03 38.228-77.018 81.969-78.96h9.031l-.03 40.456z" fill="#A0D4CD" fill-rule="nonzero"/>
        <path d="M49.581 43.716C34.24 34.574 18.547 31.642 2 30.634v99.908h99.907c0-13.392-5.333-28.827-10.828-40.88-8.683-19.114-23.577-35.254-41.498-45.946z" fill="#5779B0" fill-rule="nonzero"/>
        <g filter="url(#obot3dgs6a)" transform="translate(18.25 25.542)" stroke="#FFF" stroke-linecap="round" stroke-linejoin="round" stroke-width="5">
            <path d="M27 77.5c0 4.14-3.36 7.5-7.5 7.5-4.14 0-7.5-3.36-7.5-7.5 0-4.14 3.36-7.5 7.5-7.5 4.14 0 7.5 3.36 7.5 7.5zM43 85v-7.5c0-4.14 3.36-7.5 7.5-7.5 4.14 0 7.5 3.36 7.5 7.5V85M20 58v12M51 58v12M35.5 39C46.268 39 55 30.264 55 19.5S46.268 0 35.5 0 16 8.736 16 19.5 24.732 39 35.5 39z"/>
            <path d="M70 85V74.344C70 63.153 54.25 54 35 54S0 63.153 0 74.344V85"/>
        </g>
    </g>
</svg>
