<svg width="136" height="135" viewBox="0 0 136 135" xmlns="http://www.w3.org/2000/svg">
    <g fill="#FFF" fill-rule="evenodd" opacity=".2">
        <path d="M19.917 19.651c-26.556 26.202-26.556 68.683 0 94.884 26.556 26.202 69.61 26.202 96.166 0 26.556-26.201 26.556-68.682 0-94.884-26.556-26.201-69.61-26.201-96.166 0zm88.153 7.907a55.385 55.385 0 0 1 0 79.07c-22.13 21.836-58.01 21.836-80.14 0a55.385 55.385 0 0 1 0-79.07C49.658 6.12 84.64 5.73 106.85 26.388l1.22 1.17z" fill-rule="nonzero"/>
        <path stroke="#FFF" stroke-width="14" d="m19.917 114.535 88.153-86.977"/>
    </g>
</svg>
