<svg width="88" height="88" viewBox="0 0 88 88" xmlns="http://www.w3.org/2000/svg">
    <g fill="#FFF" fill-rule="nonzero" opacity=".497">
        <path d="M44 51.333c15.999 0 29.333 10.24 29.333 23.375v5.959a3.667 3.667 0 1 1-7.333 0v-5.959c0-8.6-9.692-16.041-22-16.041s-22 7.441-22 16.041v5.959a3.667 3.667 0 0 1-7.333 0v-5.959C14.667 61.572 28 51.333 44 51.333zM4.534 56.298a3.667 3.667 0 1 1 5.598 4.737c-1.847 2.183-2.799 4.583-2.799 7.038V77A3.667 3.667 0 1 1 0 77v-8.927c0-4.263 1.607-8.316 4.534-11.775zM78.298 55.868a3.667 3.667 0 0 1 5.168.43C86.393 59.757 88 63.81 88 68.073V77a3.667 3.667 0 0 1-7.333 0v-8.927c0-2.455-.952-4.855-2.8-7.038a3.667 3.667 0 0 1 .431-5.167zM45.833 3.667c-11.122 0-20.166 9.044-20.166 20.166S34.71 44 45.833 44 66 34.955 66 23.833c0-11.122-9.045-20.166-20.167-20.166zm0 7.333c7.072 0 12.834 5.761 12.834 12.833s-5.762 12.834-12.834 12.834S33 30.905 33 23.833 38.761 11 45.833 11zM71.186 16.604A3.667 3.667 0 0 1 76.15 15.1c4.991 2.67 8.184 7.816 8.184 13.545 0 8.116-6.32 14.783-14.412 15.346a3.667 3.667 0 0 1-.51-7.315C73.688 36.378 77 32.882 77 28.645c0-2.766-1.437-5.279-3.76-6.756l-.55-.323a3.667 3.667 0 0 1-1.504-4.962zM11.847 15.101a3.667 3.667 0 0 1 3.828 6.24l-.365.224c-2.642 1.416-4.31 4.103-4.31 7.08 0 4.235 3.314 7.73 7.59 8.03a3.667 3.667 0 0 1-.514 7.316c-8.09-.569-14.41-7.232-14.41-15.346 0-5.727 3.194-10.872 8.18-13.544z"/>
    </g>
</svg>
