<svg width="30" height="31" viewBox="0 0 30 31" xmlns="http://www.w3.org/2000/svg">
    <g fill="#B1B2B4" fill-rule="nonzero">
        <path d="M10 23.25a3.75 3.75 0 0 0 0 7.5 3.75 3.75 0 0 0 0-7.5zm0 2.5a1.25 1.25 0 0 1 0 2.5 1.25 1.25 0 0 1 0-2.5zM20 23.25A3.75 3.75 0 0 1 23.75 27v2.5a1.25 1.25 0 0 1-2.5 0V27a1.25 1.25 0 0 0-2.5 0v2.5a1.25 1.25 0 0 1-2.5 0V27A3.75 3.75 0 0 1 20 23.25z"/>
        <path d="M10 19.5c.69 0 1.25.56 1.25 1.25v3.75a1.25 1.25 0 0 1-2.5 0v-3.75c0-.69.56-1.25 1.25-1.25zM20 19.5c.69 0 1.25.56 1.25 1.25v3.75a1.25 1.25 0 0 1-2.5 0v-3.75c0-.69.56-1.25 1.25-1.25zM15 .75c-4.14 0-7.5 3.36-7.5 7.5 0 4.14 3.36 7.5 7.5 7.5 4.142 0 7.5-3.36 7.5-7.5 0-4.14-3.358-7.5-7.5-7.5zm0 2.5c2.76 0 5 2.24 5 5s-2.24 5-5 5-5-2.24-5-5 2.24-5 5-5z"/>
        <path d="M15 18.25c6.788 0 12.5 3.332 12.5 7.813V29.5a1.25 1.25 0 0 1-2.5 0v-3.438c0-2.739-4.411-5.312-10-5.312-5.588 0-10 2.573-10 5.313V29.5a1.25 1.25 0 0 1-2.5 0v-3.438c0-4.48 5.713-7.812 12.5-7.812z"/>
    </g>
</svg>
