<svg width="24" height="24" viewBox="0 0 24 24" xmlns="http://www.w3.org/2000/svg">
    <g fill="#C4C5C7" fill-rule="nonzero">
        <path d="M12.8 24h-1.6a2.4 2.4 0 0 1-2.4-2.112 10.144 10.144 0 0 1-1.56-.64 2.4 2.4 0 0 1-3.2-.2L2.952 19.92a2.4 2.4 0 0 1-.2-3.2 10.144 10.144 0 0 1-.64-1.52A2.4 2.4 0 0 1 0 12.8v-1.6a2.4 2.4 0 0 1 2.112-2.4c.17-.537.384-1.059.64-1.56a2.4 2.4 0 0 1 .2-3.2L4.08 2.952a2.4 2.4 0 0 1 3.2-.2c.489-.254.997-.468 1.52-.64A2.4 2.4 0 0 1 11.2 0h1.6a2.4 2.4 0 0 1 2.4 2.112c.537.17 1.059.384 1.56.64a2.4 2.4 0 0 1 3.2.2l1.088 1.128a2.4 2.4 0 0 1 .2 3.2c.256.501.47 1.023.64 1.56A2.4 2.4 0 0 1 24 11.2v1.6a2.4 2.4 0 0 1-2.112 2.4c-.17.537-.384 1.059-.64 1.56a2.4 2.4 0 0 1-.2 3.2l-1.128 1.088a2.4 2.4 0 0 1-3.2.2c-.501.256-1.023.47-1.56.64A2.4 2.4 0 0 1 12.8 24zm-5.672-4.536a.752.752 0 0 1 .408.112 8.8 8.8 0 0 0 2.264.936.8.8 0 0 1 .6.8v.288a.8.8 0 0 0 .8.8h1.6a.8.8 0 0 0 .8-.8v-.312a.8.8 0 0 1 .6-.8 8.8 8.8 0 0 0 2.264-.936.8.8 0 0 1 .968.12l.224.224a.8.8 0 0 0 1.136 0l1.128-1.128a.8.8 0 0 0 0-1.136l-.224-.224a.8.8 0 0 1-.12-.968 8.8 8.8 0 0 0 .936-2.264.8.8 0 0 1 .8-.6h.288a.8.8 0 0 0 .8-.8V11.2a.8.8 0 0 0-.8-.8h-.312a.8.8 0 0 1-.8-.6 8.8 8.8 0 0 0-.936-2.264.8.8 0 0 1 .12-.968l.224-.224a.8.8 0 0 0 0-1.136L18.792 4.08a.8.8 0 0 0-1.136 0l-.224.224a.8.8 0 0 1-.968.12 8.8 8.8 0 0 0-2.264-.936.8.8 0 0 1-.6-.8V2.4a.8.8 0 0 0-.8-.8h-1.6a.8.8 0 0 0-.8.8v.312a.8.8 0 0 1-.6.8 8.8 8.8 0 0 0-2.264.936.8.8 0 0 1-.968-.12l-.224-.248a.8.8 0 0 0-1.136 0L4.08 5.208a.8.8 0 0 0 0 1.136l.224.224a.8.8 0 0 1 .12.968A8.8 8.8 0 0 0 3.488 9.8a.8.8 0 0 1-.8.6H2.4a.8.8 0 0 0-.8.8v1.6a.8.8 0 0 0 .8.8h.312a.8.8 0 0 1 .8.6 8.8 8.8 0 0 0 .936 2.264.8.8 0 0 1-.12.968l-.224.224a.8.8 0 0 0 0 1.136l1.104 1.128a.8.8 0 0 0 1.136 0l.224-.224a.8.8 0 0 1 .56-.232z"/>
        <path d="M12 17.6a5.6 5.6 0 1 1 0-11.2 5.6 5.6 0 0 1 0 11.2zM12 8a4 4 0 1 0 0 8 4 4 0 0 0 0-8z"/>
    </g>
</svg>
