<svg width="24" height="24" viewBox="0 0 24 24" xmlns="http://www.w3.org/2000/svg">
    <g fill="#B1B2B4" fill-rule="nonzero">
        <path d="M19 1H5a3 3 0 0 0-3 3v16a3 3 0 0 0 3 3h12a3 3 0 0 0 3-3V2a1 1 0 0 0-1-1zm-1 2v17a1 1 0 0 1-1 1H5a1 1 0 0 1-1-1V4a1 1 0 0 1 1-1h13z"/>
        <path d="M11 7a3.5 3.5 0 0 0 0 7 3.5 3.5 0 0 0 0-7zm0 2a1.5 1.5 0 0 1 0 3 1.5 1.5 0 0 1 0-3zM11 15c1.798 0 3.485.505 4.614 1.382a1 1 0 0 1-1.227 1.58C13.633 17.376 12.377 17 11 17c-1.377 0-2.632.376-3.386.962a1 1 0 0 1-1.227-1.58C7.516 15.505 9.203 15 11 15zM3 5a1 1 0 1 1 0 2H1a1 1 0 1 1 0-2h2zM3 11a1 1 0 0 1 0 2H1a1 1 0 0 1 0-2h2zM3 17a1 1 0 0 1 0 2H1a1 1 0 0 1 0-2h2zM21 1a3 3 0 0 1 3 3v2a3 3 0 0 1-3 3h-2a1 1 0 0 1 0-2h2a1 1 0 0 0 1-1V4a1 1 0 0 0-1-1h-2a1 1 0 0 1 0-2h2z"/>
        <path d="M21 7a3 3 0 0 1 3 3v2a3 3 0 0 1-3 3h-2a1 1 0 0 1 0-2h2a1 1 0 0 0 1-1v-2a1 1 0 0 0-1-1h-2a1 1 0 0 1 0-2h2z"/>
    </g>
</svg>
