<svg width="25" height="24" viewBox="0 0 25 24" xmlns="http://www.w3.org/2000/svg">
    <g fill="#FFF" fill-rule="nonzero">
        <path d="M19.885 23.154H5.115a2.77 2.77 0 0 1-2.769-2.77v-9.23a.923.923 0 1 1 1.846 0v9.23c0 .51.414.924.923.924h14.77c.51 0 .923-.414.923-.923v-9.231a.923.923 0 1 1 1.846 0v9.23a2.77 2.77 0 0 1-2.77 2.77z"/>
        <path d="M11.577 23.154H6.962a.923.923 0 0 1-.924-.923v-5.539a2.77 2.77 0 0 1 2.77-2.769h.923a2.77 2.77 0 0 1 2.769 2.77v5.538c0 .51-.413.923-.923.923zm-3.692-1.846h2.769v-4.616a.923.923 0 0 0-.923-.923h-.923a.923.923 0 0 0-.923.923v4.616zM20.808 12.077a3.692 3.692 0 0 1-3.693-3.692.923.923 0 1 1 1.847 0 1.846 1.846 0 1 0 3.692 0v-.702l-2.419-4.837H4.765L2.346 7.683v.702a1.846 1.846 0 1 0 3.692 0 .923.923 0 0 1 1.847 0 3.692 3.692 0 1 1-7.385 0v-.923c0-.145.036-.287.102-.416L3.37 1.508A.923.923 0 0 1 4.192 1h16.616a.923.923 0 0 1 .821.508l2.77 5.538c.065.129.1.271.101.416v.923a3.692 3.692 0 0 1-3.692 3.692z"/>
        <path d="M9.73 12.077a3.692 3.692 0 0 1-3.692-3.692.923.923 0 0 1 1.847 0 1.846 1.846 0 0 0 3.692 0 .923.923 0 1 1 1.846 0 3.692 3.692 0 0 1-3.692 3.692z"/>
        <path d="M15.27 12.077a3.692 3.692 0 0 1-3.693-3.692.923.923 0 1 1 1.846 0 1.846 1.846 0 0 0 3.692 0 .923.923 0 1 1 1.847 0 3.692 3.692 0 0 1-3.693 3.692zM18.038 16.692H15.27a.923.923 0 1 1 0-1.846h2.77a.923.923 0 0 1 0 1.846z"/>
    </g>
</svg>
