<svg width="24" height="24" viewBox="0 0 24 24" xmlns="http://www.w3.org/2000/svg">
    <g fill="#A0D4CD" fill-rule="nonzero">
        <path d="M8 18a3 3 0 1 0 .002 6.001A3 3 0 0 0 8 18zm0 2A1 1 0 1 1 8 22.001 1 1 0 0 1 8 20zM16 18a3 3 0 0 1 3 3v2a1 1 0 0 1-2 0v-2a1 1 0 0 0-2 0v2a1 1 0 0 1-2 0v-2a3 3 0 0 1 3-3z"/>
        <path d="M8 15a1 1 0 0 1 1 1v3a1 1 0 0 1-2 0v-3a1 1 0 0 1 1-1zM16 15a1 1 0 0 1 1 1v3a1 1 0 0 1-2 0v-3a1 1 0 0 1 1-1zM12 0a6.001 6.001 0 0 0 0 12 6.001 6.001 0 0 0 0-12zm0 2a4.001 4.001 0 0 1 0 8 4.001 4.001 0 0 1 0-8z"/>
        <path d="M12 14c5.43 0 10 2.666 10 6.25V23a1 1 0 0 1-2 0v-2.75c0-2.191-3.529-4.25-8-4.25-4.47 0-8 2.059-8 4.25V23a1 1 0 0 1-2 0v-2.75C2 16.666 6.57 14 12 14z"/>
    </g>
</svg>
