<svg width="16" height="16" viewBox="0 0 16 16" xmlns="http://www.w3.org/2000/svg">
    <g fill="#FFF" fill-rule="nonzero">
        <path d="M8 0c3.651 0 6 2.725 6 6.167 0 1.07-.612 2.517-1.699 4.314-.325.539-.689 1.1-1.084 1.677a53.267 53.267 0 0 1-1.856 2.538l-.32.409-.527.654-.026.03-.032.031-.029.026-.034.027-.068.043-.072.035-.04.015-.035.01-.042.01-.078.012-.035.002h-.044l-.035-.002-.043-.006-.035-.006-.042-.01-.035-.01-.04-.015-.072-.035-.068-.043-.034-.027-.03-.026-.031-.031-.026-.03-.235-.288-.293-.366a55.95 55.95 0 0 1-2.176-2.947 35.507 35.507 0 0 1-1.085-1.677C2.613 8.684 2 7.236 2 6.167 2 2.725 4.35 0 8 0zm0 1.333c-2.867 0-4.666 2.088-4.666 4.834 0 .748.541 2.028 1.506 3.624a34.19 34.19 0 0 0 1.044 1.614c.46.672.947 1.343 1.44 1.992l.53.686.147.188.306-.392a51.957 51.957 0 0 0 1.81-2.474c.382-.558.732-1.098 1.043-1.613.965-1.597 1.507-2.877 1.507-3.625 0-2.746-1.8-4.834-4.666-4.834z"/>
        <path d="M8 3.333a2.667 2.667 0 1 0 0 5.334 2.667 2.667 0 0 0 0-5.334zm0 1.334A1.334 1.334 0 1 1 8 7.335 1.334 1.334 0 0 1 8 4.667z"/>
    </g>
</svg>
