<svg width="16" height="16" viewBox="0 0 16 16" xmlns="http://www.w3.org/2000/svg">
    <g fill="#FFF" fill-rule="nonzero">
        <path d="M8 9.333c2.909 0 5.333 1.862 5.333 4.25v1.084a.667.667 0 0 1-1.333 0v-1.084c0-1.563-1.762-2.916-4-2.916s-4 1.353-4 2.916v1.084a.667.667 0 1 1-1.333 0v-1.084c0-2.388 2.424-4.25 5.333-4.25zM.824 10.236a.667.667 0 0 1 1.018.861c-.336.397-.509.834-.509 1.28V14A.667.667 0 0 1 0 14v-1.623c0-.775.292-1.512.824-2.141zM14.236 10.158a.667.667 0 0 1 .94.078c.532.629.824 1.366.824 2.14V14a.667.667 0 1 1-1.333 0v-1.623c0-.446-.173-.883-.51-1.28a.667.667 0 0 1 .079-.94zM8.333.667a3.67 3.67 0 0 0-3.666 3.666A3.67 3.67 0 0 0 8.333 8 3.67 3.67 0 0 0 12 4.333 3.67 3.67 0 0 0 8.333.667zm0 1.333a2.337 2.337 0 0 1 2.334 2.333 2.337 2.337 0 0 1-2.334 2.334A2.337 2.337 0 0 1 6 4.333 2.337 2.337 0 0 1 8.333 2zM12.943 3.019a.667.667 0 0 1 .902-.273 2.792 2.792 0 0 1 1.488 2.462 2.804 2.804 0 0 1-2.62 2.79.667.667 0 1 1-.093-1.33A1.47 1.47 0 0 0 14 5.208c0-.503-.261-.96-.683-1.228l-.1-.059a.667.667 0 0 1-.274-.902zM2.154 2.746A.667.667 0 0 1 2.85 3.88l-.066.041C2.304 4.178 2 4.667 2 5.208c0 .77.603 1.406 1.38 1.46a.667.667 0 0 1-.093 1.33 2.805 2.805 0 0 1-2.62-2.79c0-1.041.58-1.977 1.487-2.462z"/>
    </g>
</svg>
