<svg width="24" height="24" viewBox="0 0 24 24" xmlns="http://www.w3.org/2000/svg">
    <path d="M23.911 8.947a1.741 1.741 0 0 0-1.383-1.17l-6.245-.958-2.714-5.817A1.734 1.734 0 0 0 12 0c-.672 0-1.283.391-1.569 1.002L7.717 6.819l-6.246.959A1.739 1.739 0 0 0 .09 8.948c-.207.62-.05 1.302.402 1.768l4.577 4.717-1.061 6.542c-.108.66.169 1.32.71 1.706a1.725 1.725 0 0 0 1.838.101L12 20.757l5.445 3.025a1.73 1.73 0 0 0 1.837-.101 1.747 1.747 0 0 0 .71-1.706l-1.062-6.542 4.578-4.717c.453-.466.608-1.15.403-1.769z" fill="#00A291" fill-rule="nonzero" opacity=".8"/>
</svg>
