<svg width="360" height="640" viewBox="0 0 360 640" xmlns="http://www.w3.org/2000/svg" xmlns:xlink="http://www.w3.org/1999/xlink">
    <defs>
        <path id="h4w7o5u64a" d="M0 0h360v640H0z"/>
    </defs>
    <g fill="none" fill-rule="evenodd">
        <mask id="9rk7fxvfvb" fill="#fff">
            <use xlink:href="#h4w7o5u64a"/>
        </mask>
        <g opacity=".12" mask="url(#9rk7fxvfvb)" fill="#E5481D" fill-rule="nonzero">
            <path d="M111.414 201.863c22.07-13.205 44.727-17.41 68.586-18.863v144H36c0-19.3 7.687-41.546 15.596-58.916 12.525-27.549 33.99-50.79 59.818-66.22z" opacity=".474"/>
            <path d="M68.58 272.145C46.469 285.321 23.85 289.547 0 291V147h144c0 19.302-7.687 41.55-15.607 58.92-12.516 27.551-33.982 50.815-59.812 66.225z"/>
        </g>
        <g opacity=".12" mask="url(#9rk7fxvfvb)" fill="#E5481D" fill-rule="nonzero">
            <path d="M291.414 237.863c22.07-13.205 44.727-17.41 68.586-18.863v144H216c0-19.3 7.687-41.546 15.596-58.916 12.525-27.549 33.99-50.79 59.818-66.22z" opacity=".474"/>
            <path d="M248.58 308.145C226.469 321.321 203.85 325.547 180 327V183h144c0 19.302-7.687 41.55-15.607 58.92-12.516 27.551-33.982 50.815-59.812 66.225z"/>
        </g>
        <g opacity=".12" mask="url(#9rk7fxvfvb)" fill="#E5481D" fill-rule="nonzero">
            <path d="M111.414 561.863c22.07-13.205 44.727-17.41 68.586-18.863v144H36c0-19.3 7.687-41.546 15.596-58.916 12.525-27.549 33.99-50.79 59.818-66.22z" opacity=".474"/>
            <path d="M68.58 632.145C46.469 645.321 23.85 649.547 0 651V507h144c0 19.302-7.687 41.55-15.607 58.92-12.516 27.551-33.982 50.815-59.812 66.225z"/>
        </g>
        <g opacity=".12" mask="url(#9rk7fxvfvb)" fill="#E5481D" fill-rule="nonzero">
            <path d="M291.414 596.863c22.07-13.205 44.727-17.41 68.586-18.863v144H216c0-19.3 7.687-41.546 15.596-58.916 12.525-27.549 33.99-50.79 59.818-66.22z" opacity=".474"/>
            <path d="M248.58 667.145C226.469 680.321 203.85 684.547 180 686V542h144c0 19.302-7.687 41.55-15.607 58.92-12.516 27.551-33.982 50.815-59.812 66.225z"/>
        </g>
        <g opacity=".12" mask="url(#9rk7fxvfvb)" fill="#E5481D" fill-rule="nonzero">
            <path d="M68.586 92.137C46.516 105.342 23.859 109.547 0 111V-33h144c0 19.3-7.687 41.546-15.596 58.916-12.525 27.549-33.99 50.79-59.818 66.22z" opacity=".474"/>
            <path d="M111.42 21.855C133.531 8.679 156.15 4.453 180 3v144H36c0-19.302 7.687-41.55 15.607-58.92C64.123 60.528 85.59 37.264 111.42 21.854z"/>
        </g>
        <g opacity=".12" mask="url(#9rk7fxvfvb)" fill="#E5481D" fill-rule="nonzero">
            <path d="M248.586 128.137C226.516 141.342 203.859 145.547 180 147V3h144c0 19.3-7.687 41.546-15.596 58.916-12.525 27.549-33.99 50.79-59.818 66.22z" opacity=".474"/>
            <path d="M291.42 57.855C313.531 44.679 336.15 40.453 360 39v144H216c0-19.302 7.687-41.55 15.607-58.92 12.516-27.551 33.982-50.815 59.812-66.225z"/>
        </g>
        <g opacity=".12" mask="url(#9rk7fxvfvb)" fill="#E5481D" fill-rule="nonzero">
            <path d="M68.586 452.137C46.516 465.342 23.859 469.547 0 471V327h144c0 19.3-7.687 41.546-15.596 58.916-12.525 27.549-33.99 50.79-59.818 66.22z" opacity=".474"/>
            <path d="M111.42 381.855C133.531 368.679 156.15 364.453 180 363v144H36c0-19.302 7.687-41.55 15.607-58.92 12.516-27.551 33.982-50.815 59.812-66.225z"/>
        </g>
        <g opacity=".12" mask="url(#9rk7fxvfvb)" fill="#E5481D" fill-rule="nonzero">
            <path d="M248.586 487.137C226.516 500.342 203.859 504.547 180 506V362h144c0 19.3-7.687 41.546-15.596 58.916-12.525 27.549-33.99 50.79-59.818 66.22z" opacity=".474"/>
            <path d="M291.42 416.855C313.531 403.679 336.15 399.453 360 398v144H216c0-19.302 7.687-41.55 15.607-58.92 12.516-27.551 33.982-50.815 59.812-66.225z"/>
        </g>
    </g>
</svg>
