<?xml version="1.0" encoding="UTF-8"?>
<svg width="360px" height="640px" viewBox="0 0 360 640" version="1.1" xmlns="http://www.w3.org/2000/svg" xmlns:xlink="http://www.w3.org/1999/xlink">
    <title>B7A8A5C8-D937-43D2-9210-FC2D95AA2539</title>
    <defs>
        <rect id="path-1" x="0" y="0" width="360" height="640"></rect>
    </defs>
    <g id="🚧-Diseño-principal" stroke="none" stroke-width="1" fill="none" fill-rule="evenodd">
        <g id="textura-3">
            <mask id="mask-2" fill="white">
                <use xlink:href="#path-1"></use>
            </mask>
            <g id="Rectangle"></g>
            <g id="Group-2" mask="url(#mask-2)" fill="#00A291" fill-rule="nonzero">
                <g transform="translate(180.000000, 140.000000) scale(1, -1) translate(-180.000000, -140.000000) translate(-73.000000, -113.000000)">
                    <path d="M506,166.542298 L430.017018,166.542298 C411.408941,166.542298 392.77267,166.542298 374.164592,166.542298 C333.536957,166.373105 296.179832,165.273351 260.23241,143.81404 C230.004918,126.013649 205.881714,99.467732 191.044196,67.6771954 C181.881128,47.6560251 173,22.1360826 173,0 L173,39.478364 C174.607061,63.2781777 183.967488,161.945889 266.519685,243.045728 C349.635763,324.822339 449.301753,331.900246 472.956566,333 L506,333 L506,166.542298 Z" id="Path-Copy-3" opacity="0.0979585193"></path>
                    <path d="M0,339.584618 L76.0853008,339.584618 C94.7121097,339.584618 113.310739,339.443588 131.937548,339.584618 C172.600914,339.894884 209.882711,340.853888 245.840061,362.149416 C276.028237,379.975378 300.124647,406.52284 314.964966,438.305607 C324.095202,458.331865 333,483.886498 333,506 L333,466.511604 C331.393755,442.705743 322.009901,344.041166 239.499619,262.920718 C156.284844,181.292563 56.697639,174.071828 33.0266565,173 L0,173 L0,339.584618 Z" id="Path-Copy-4" opacity="0.0480608259"></path>
                </g>
            </g>
            <g id="Group-2-Copy" mask="url(#mask-2)" fill="#00A291" fill-rule="nonzero">
                <g transform="translate(180.000000, 476.000000) scale(1, -1) translate(-180.000000, -476.000000) translate(-73.000000, 223.000000)">
                    <path d="M506,166.542298 L430.017018,166.542298 C411.408941,166.542298 392.77267,166.542298 374.164592,166.542298 C333.536957,166.373105 296.179832,165.273351 260.23241,143.81404 C230.004918,126.013649 205.881714,99.467732 191.044196,67.6771954 C181.881128,47.6560251 173,22.1360826 173,0 L173,39.478364 C174.607061,63.2781777 183.967488,161.945889 266.519685,243.045728 C349.635763,324.822339 449.301753,331.900246 472.956566,333 L506,333 L506,166.542298 Z" id="Path-Copy-3" opacity="0.0982375372"></path>
                    <path d="M0,339.584618 L76.0853008,339.584618 C94.7121097,339.584618 113.310739,339.443588 131.937548,339.584618 C172.600914,339.894884 209.882711,340.853888 245.840061,362.149416 C276.028237,379.975378 300.124647,406.52284 314.964966,438.305607 C324.095202,458.331865 333,483.886498 333,506 L333,466.511604 C331.393755,442.705743 322.009901,344.041166 239.499619,262.920718 C156.284844,181.292563 56.697639,174.071828 33.0266565,173 L0,173 L0,339.584618 Z" id="Path-Copy-4" opacity="0.050874256"></path>
                </g>
            </g>
        </g>
    </g>
</svg>