<svg width="360" height="640" viewBox="0 0 360 640" xmlns="http://www.w3.org/2000/svg" xmlns:xlink="http://www.w3.org/1999/xlink">
    <defs>
        <path id="3jv76w6ika" d="M0 0h360v640H0z"/>
    </defs>
    <g fill="none" fill-rule="evenodd">
        <mask id="2ynu3wa50b" fill="#fff">
            <use xlink:href="#3jv76w6ika"/>
        </mask>
        <path d="M128.6 206.152C83.628 161.524 29.694 157.596 16.903 157H-1v103.63c.876 13.018 5.947 66.92 50.614 111.218C94.606 416.455 148.54 420.404 161.33 421h35.338c12.811-.596 66.745-4.545 111.717-49.152 44.667-44.298 49.738-98.2 50.614-111.218V157h-17.883c-12.811.596-66.725 4.524-111.717 49.152-41.896 41.542-48.883 91.558-50.39 108.318-1.446-16.76-8.493-66.776-50.41-108.318zm61.399 95.754c8.058-17.35 21.132-31.839 37.506-41.566 19.508-11.661 39.71-12.196 61.789-12.34H360a114.559 114.559 0 0 1-8.999 28.074c-8.046 17.363-21.122 31.862-37.506 41.586-19.508 11.682-39.71 12.196-61.789 12.34H181a114.414 114.414 0 0 1 8.999-28.094zM69.743 248.002c22.051.165 42.267.7 61.768 12.34 16.37 9.738 29.433 24.242 37.473 41.606 4.2 8.917 7.23 18.347 9.016 28.052h-70.743c-22.051-.165-42.267-.679-61.768-12.34-16.35-9.735-29.392-24.232-37.412-41.585A114.617 114.617 0 0 1-1 248.064h40.41c10.098 0 20.195-.144 30.292 0l.041-.062z" fill="#0B2C62" fill-rule="nonzero" opacity=".296" mask="url(#2ynu3wa50b)"/>
        <path d="M128.519 448.156C83.547 403.524 29.613 399.596 16.903 399H-1v103.638c.876 12.998 5.947 66.905 50.614 111.227 44.992 44.61 98.926 48.56 111.717 49.135h35.338c12.811-.576 66.745-4.525 111.717-49.135 44.972-44.61 49.738-98.229 50.614-111.227V399h-17.883c-12.811.596-66.725 4.525-111.717 49.156-41.896 41.545-48.883 91.544-50.39 108.327-1.527-16.783-8.575-66.782-50.491-108.327zm61.48 95.77c8.058-17.355 21.131-31.85 37.506-41.586 19.508-11.661 39.71-12.196 61.789-12.34H360a114.559 114.559 0 0 1-8.999 28.074c-8.046 17.363-21.122 31.862-37.506 41.586-19.508 11.661-39.71 12.196-61.789 12.34H181a114.848 114.848 0 0 1 8.999-28.074zm-120.293-53.89c22.059.165 42.281.7 61.79 12.335 16.369 9.731 29.435 24.221 37.485 41.568A114.78 114.78 0 0 1 178 572h-70.767c-22.06-.164-42.281-.699-61.79-12.335-16.354-9.73-29.402-24.222-37.424-41.567A114.512 114.512 0 0 1-1 490.037h40.424c10.04 0 20.14-.083 30.241 0h.041z" fill="#0B2C62" fill-rule="nonzero" opacity=".4" mask="url(#2ynu3wa50b)"/>
        <path d="M128.519-28.844C83.547-73.475 29.613-77.404 16.903-78H-1V25.638c.876 12.998 5.947 66.905 50.614 111.227 44.992 44.61 98.926 48.56 111.717 49.135h35.338c12.811-.576 66.745-4.525 111.717-49.135C353.358 92.255 358.124 38.636 359 25.638V-78h-17.883c-12.811.596-66.725 4.525-111.717 49.156C187.504 12.7 180.517 62.7 179.01 79.483 177.483 62.7 170.435 12.7 128.52-28.844zm61.48 95.77c8.058-17.355 21.131-31.85 37.506-41.586 19.508-11.661 39.71-12.196 61.789-12.34H360a114.559 114.559 0 0 1-8.999 28.074c-8.046 17.363-21.122 31.862-37.506 41.586-19.508 11.661-39.71 12.196-61.789 12.34H181a114.848 114.848 0 0 1 8.999-28.074zM69.706 13.036c22.059.165 42.281.7 61.79 12.335 16.369 9.731 29.435 24.221 37.485 41.568A114.78 114.78 0 0 1 178 95h-70.767c-22.06-.164-42.281-.699-61.79-12.335C29.09 72.935 16.042 58.443 8.02 41.098A114.512 114.512 0 0 1-1 13.037h40.424c10.04 0 20.14-.083 30.241 0h.041z" fill="#0B2C62" fill-rule="nonzero" opacity=".198" mask="url(#2ynu3wa50b)"/>
    </g>
</svg>
