<?xml version="1.0" encoding="UTF-8" standalone="no"?>
<svg
   width="328"
   height="374.5"
   viewBox="0 0 328 374.5"
   version="1.1"
   id="svg24"
   sodipodi:docname="ticket_mask_detail.svg"
   inkscape:version="1.2.1 (9c6d41e, 2022-07-14)"
   xmlns:inkscape="http://www.inkscape.org/namespaces/inkscape"
   xmlns:sodipodi="http://sodipodi.sourceforge.net/DTD/sodipodi-0.dtd"
   xmlns:xlink="http://www.w3.org/1999/xlink"
   xmlns="http://www.w3.org/2000/svg"
   xmlns:svg="http://www.w3.org/2000/svg">
  <sodipodi:namedview
     id="namedview26"
     pagecolor="#ffffff"
     bordercolor="#000000"
     borderopacity="0.25"
     inkscape:showpageshadow="2"
     inkscape:pageopacity="0.0"
     inkscape:pagecheckerboard="0"
     inkscape:deskcolor="#d1d1d1"
     showgrid="false"
     inkscape:zoom="2.209068"
     inkscape:cx="158.21152"
     inkscape:cy="189.44641"
     inkscape:window-width="1390"
     inkscape:window-height="1027"
     inkscape:window-x="0"
     inkscape:window-y="25"
     inkscape:window-maximized="0"
     inkscape:current-layer="g22" />
  <defs
     id="defs12">
    <filter
       x="-0.029268293"
       y="-0.025634179"
       width="1.0585366"
       height="1.0619493"
       filterUnits="objectBoundingBox"
       id="yau7ns6x3a">
      <feMorphology
         radius="1.5"
         operator="dilate"
         in="SourceAlpha"
         result="shadowSpreadOuter1"
         id="feMorphology2" />
      <feOffset
         dy="4"
         in="shadowSpreadOuter1"
         result="shadowOffsetOuter1"
         id="feOffset4" />
      <feGaussianBlur
         stdDeviation="4"
         in="shadowOffsetOuter1"
         result="shadowBlurOuter1"
         id="feGaussianBlur6" />
      <feColorMatrix
         values="0 0 0 0 0 0 0 0 0 0 0 0 0 0 0 0 0 0 0.15 0"
         in="shadowBlurOuter1"
         id="feColorMatrix8" />
    </filter>
    <path
       d="M318.638 217.717c5.669-2.67 9.362-8.284 9.362-14.55V16c0-8.836-7.163-16-16-16H16C7.163 0 0 7.164 0 16v187.167c0 6.266 3.693 11.88 9.362 14.55C16.83 221.236 22 228.83 22 237.633s-5.17 16.397-12.638 19.914C3.693 260.216 0 265.83 0 272.096V358.5c0 8.837 7.163 16 16 16h296c8.837 0 16-7.163 16-16v-86.403c0-6.266-3.693-11.881-9.362-14.55C311.17 254.029 306 246.434 306 237.632s5.17-16.397 12.638-19.915z"
       id="id5e11jlob" />
  </defs>
  <g
     fill="none"
     fill-rule="evenodd"
     id="g22"
     inkscape:label="g22">
    <use
       fill="#ffffff"
       xlink:href="#id5e11jlob"
       id="use16"
       inkscape:label="background"
       style="fill:#ffffff" />
    <path
       stroke="#d8d9da"
       stroke-dasharray="6"
       d="M 22,237 H 305"
       id="path20"
       inkscape:label="line" />
  </g>
</svg>
